<?xml version="1.0" encoding="utf-8"?>
<!-- Generator: Adobe Illustrator 22.0.0, SVG Export Plug-In . SVG Version: 6.00 Build 0)  -->
<svg version="1.1" id="Layer_1" xmlns="http://www.w3.org/2000/svg" xmlns:xlink="http://www.w3.org/1999/xlink" x="0px" y="0px"
	 viewBox="0 0 50 50" style="enable-background:new 0 0 50 50;" xml:space="preserve">
<style type="text/css">
	.st0{fill:#FFFFFF;stroke:#222222;stroke-width:0.75;stroke-linecap:round;stroke-linejoin:round;stroke-miterlimit:10;}
	.st1{fill:#D0E1FF;stroke:#222222;stroke-width:0.75;stroke-linecap:round;stroke-linejoin:round;stroke-miterlimit:10;}
	.st2{fill:#D0E1FF;}
	.st3{fill:none;stroke:#222222;stroke-width:0.5;stroke-linecap:square;stroke-linejoin:round;stroke-miterlimit:10;}
	.st4{fill:none;stroke:#222222;stroke-width:0.75;stroke-linecap:round;stroke-linejoin:round;stroke-miterlimit:10;}
	.st5{fill:none;stroke:#222222;stroke-width:0.75;stroke-linecap:square;stroke-linejoin:round;stroke-miterlimit:10;}
	.st6{fill:#F6F0ED;stroke:#222222;stroke-width:0.75;stroke-linecap:round;stroke-linejoin:round;stroke-miterlimit:10;}
	.st7{fill:none;stroke:#222222;stroke-width:0.75;}
	.st8{fill:#FFFFFF;stroke:#222222;stroke-width:0.75;}
	.st9{fill:#D0E1FF;stroke:#222222;stroke-width:0.75;stroke-linejoin:round;}
	.st10{fill:none;stroke:#FFFFFF;stroke-width:0.75;stroke-linecap:round;stroke-linejoin:round;}
	.st11{fill:#FFFFFF;stroke:#222222;stroke-width:0.75;stroke-linecap:round;stroke-linejoin:round;}
	.st12{fill:#D0E1FF;stroke:#222222;stroke-width:0.75;stroke-linecap:round;stroke-linejoin:round;}
	.st13{fill:none;stroke:#022222;stroke-width:0.75;stroke-linejoin:round;stroke-miterlimit:10;}
	.st14{fill:none;stroke:#222222;stroke-width:0.75;stroke-linejoin:round;stroke-dasharray:1.9384,4.8459;}
	.st15{fill:#4C4C4C;}
	.st16{fill:#FFFFFF;stroke:#222222;stroke-width:0.75;stroke-linejoin:round;stroke-miterlimit:10;}
	.st17{fill:none;stroke:#222222;stroke-width:0.75;stroke-linejoin:round;stroke-miterlimit:10;}
	.st18{fill:#D0E1FF;stroke:#222222;stroke-width:0.75;stroke-linejoin:round;stroke-miterlimit:10;}
	.st19{fill:#222222;}
	.st20{fill:none;stroke:#222222;stroke-width:0.75;stroke-linecap:round;stroke-miterlimit:10;}
	.st21{fill:#B1CFF0;stroke:#222222;stroke-width:0.75;stroke-linecap:round;stroke-linejoin:round;stroke-miterlimit:10;}
	.st22{fill:#FFFFFF;stroke:#222222;stroke-width:0.75;stroke-linecap:round;}
	.st23{fill:none;stroke:#222222;stroke-width:0.75;stroke-linecap:round;}
	.st24{fill:#D0E1FF;stroke:#222222;stroke-width:0.75;}
	.st25{fill:#F0F7F2;stroke:#222222;stroke-width:0.75;stroke-linecap:round;stroke-linejoin:round;stroke-miterlimit:10;}
	.st26{fill:#FFFFFF;stroke:#24396B;stroke-width:0.75;stroke-linecap:round;stroke-linejoin:round;stroke-miterlimit:10;}
	.st27{fill:#B1CFF0;stroke:#24396B;stroke-width:0.75;stroke-linecap:round;stroke-linejoin:round;stroke-miterlimit:10;}
	.st28{fill:#D0E7EE;}
	.st29{fill:#FFFFFF;}
	.st30{fill:#D0E7EE;stroke:#24396B;stroke-width:0.75;stroke-linecap:round;stroke-linejoin:round;stroke-miterlimit:10;}
	.st31{fill:none;stroke:#B1CFF0;stroke-width:0.5;stroke-linecap:round;stroke-linejoin:round;stroke-miterlimit:10;}
</style>
<path class="st16" d="M44.1,17c0-4-3.2-7.2-7.2-7.2c-2.7,0-5.1,1.5-6.3,3.7c-1.5-0.5-3-0.7-4.7-0.7c-1.6,0-3.2,0.3-4.7,0.7
	c-1.2-2.2-3.6-3.7-6.3-3.7c-4,0-7.2,3.2-7.2,7.2c0,2.7,1.5,5.1,3.8,6.4c-0.4,1.4-0.7,2.9-0.7,4.5c0,8.4,6.8,15.2,15.2,15.2
	C34.2,43,41,36.2,41,27.8c0-1.6-0.2-3.1-0.7-4.5C42.6,22.1,44.1,19.7,44.1,17z"/>
<ellipse class="st16" cx="25.9" cy="32.8" rx="9.7" ry="7.6"/>
<ellipse class="st12" cx="25.8" cy="29.9" rx="3.1" ry="2"/>
<line class="st4" x1="25.8" y1="31.9" x2="25.8" y2="34.8"/>
<g>
	<circle class="st19" cx="18.2" cy="22.9" r="1.2"/>
	<circle class="st19" cx="32.9" cy="22.9" r="1.2"/>
</g>
<g>
	<path class="st16" d="M17.5,14.3c-1.4-1.4-3.7-1.4-5.2,0c-1.4,1.4-1.4,3.7,0,5.2c0,0,0,0,0,0L17.5,14.3
		C17.5,14.4,17.5,14.4,17.5,14.3z"/>
</g>
<g>
	<path class="st16" d="M34.2,14.3c1.4-1.4,3.7-1.4,5.2,0c1.4,1.4,1.4,3.7,0,5.2c0,0,0,0,0,0L34.2,14.3
		C34.1,14.4,34.1,14.4,34.2,14.3z"/>
</g>
<path class="st4" d="M22.4,34.4c0,0,3,1.5,6.7,0"/>
</svg>
