<?xml version="1.0" encoding="utf-8"?>
<!-- Generator: Adobe Illustrator 22.0.0, SVG Export Plug-In . SVG Version: 6.00 Build 0)  -->
<svg version="1.1" id="Layer_1" xmlns="http://www.w3.org/2000/svg" xmlns:xlink="http://www.w3.org/1999/xlink" x="0px" y="0px"
	 viewBox="0 0 50 50" style="enable-background:new 0 0 50 50;" xml:space="preserve">
<style type="text/css">
	.st0{fill:#FFFFFF;stroke:#222222;stroke-width:0.75;stroke-linecap:round;stroke-linejoin:round;stroke-miterlimit:10;}
	.st1{fill:#D0E1FF;stroke:#222222;stroke-width:0.75;stroke-linecap:round;stroke-linejoin:round;stroke-miterlimit:10;}
	.st2{fill:#D0E1FF;}
	.st3{fill:none;stroke:#222222;stroke-width:0.5;stroke-linecap:square;stroke-linejoin:round;stroke-miterlimit:10;}
	.st4{fill:none;stroke:#222222;stroke-width:0.75;stroke-linecap:round;stroke-linejoin:round;stroke-miterlimit:10;}
	.st5{fill:none;stroke:#222222;stroke-width:0.75;stroke-linecap:square;stroke-linejoin:round;stroke-miterlimit:10;}
	.st6{fill:#F6F0ED;stroke:#222222;stroke-width:0.75;stroke-linecap:round;stroke-linejoin:round;stroke-miterlimit:10;}
	.st7{fill:none;stroke:#222222;stroke-width:0.75;}
	.st8{fill:#FFFFFF;stroke:#222222;stroke-width:0.75;}
	.st9{fill:#D0E1FF;stroke:#222222;stroke-width:0.75;stroke-linejoin:round;}
	.st10{fill:none;stroke:#FFFFFF;stroke-width:0.75;stroke-linecap:round;stroke-linejoin:round;}
	.st11{fill:#FFFFFF;stroke:#222222;stroke-width:0.75;stroke-linecap:round;stroke-linejoin:round;}
	.st12{fill:#D0E1FF;stroke:#222222;stroke-width:0.75;stroke-linecap:round;stroke-linejoin:round;}
	.st13{fill:none;stroke:#022222;stroke-width:0.75;stroke-linejoin:round;stroke-miterlimit:10;}
	.st14{fill:none;stroke:#222222;stroke-width:0.75;stroke-linejoin:round;stroke-dasharray:1.9384,4.8459;}
	.st15{fill:#4C4C4C;}
	.st16{fill:#FFFFFF;stroke:#222222;stroke-width:0.75;stroke-linejoin:round;stroke-miterlimit:10;}
	.st17{fill:none;stroke:#222222;stroke-width:0.75;stroke-linejoin:round;stroke-miterlimit:10;}
	.st18{fill:#D0E1FF;stroke:#222222;stroke-width:0.75;stroke-linejoin:round;stroke-miterlimit:10;}
	.st19{fill:#222222;}
	.st20{fill:none;stroke:#222222;stroke-width:0.75;stroke-linecap:round;stroke-miterlimit:10;}
	.st21{fill:#FFFFFF;stroke:#222222;stroke-width:0.75;stroke-linecap:round;}
	.st22{fill:none;stroke:#222222;stroke-width:0.75;stroke-linecap:round;}
	.st23{fill:#D0E1FF;stroke:#222222;stroke-width:0.75;}
	.st24{fill:#F0F7F2;stroke:#222222;stroke-width:0.75;stroke-linecap:round;stroke-linejoin:round;stroke-miterlimit:10;}
</style>
<polygon class="st0" points="36.6,11.1 15,11.1 16.1,7 35.6,7 "/>
<polygon class="st0" points="38.9,15.1 12.7,15.1 13.4,11.1 38.2,11.1 "/>
<polygon class="st0" points="34.2,45 17.5,45 14.5,15.1 37.1,15.1 "/>
<g>
	<polygon class="st1" points="18.9,37.2 16.1,37.2 14.5,20.7 17.8,20.7 	"/>
	<polygon class="st1" points="21.7,37.2 18.9,37.2 17.8,20.7 21,20.7 	"/>
	<polygon class="st1" points="24.4,37.2 21.7,37.2 21,20.7 24.2,20.7 	"/>
	<polygon class="st1" points="27.2,37.2 24.4,37.2 24.2,20.7 27.4,20.7 	"/>
	<polygon class="st1" points="30,37.2 27.2,37.2 27.4,20.7 30.7,20.7 	"/>
	<polygon class="st1" points="32.7,37.2 30,37.2 30.7,20.7 33.9,20.7 	"/>
	<polygon class="st1" points="35.5,37.2 32.7,37.2 33.9,20.7 37.1,20.7 	"/>
</g>
</svg>
