<?xml version="1.0" encoding="utf-8"?>
<!-- Generator: Adobe Illustrator 22.0.0, SVG Export Plug-In . SVG Version: 6.00 Build 0)  -->
<svg version="1.1" id="Layer_1" xmlns="http://www.w3.org/2000/svg" xmlns:xlink="http://www.w3.org/1999/xlink" x="0px" y="0px"
	 viewBox="0 0 50 50" style="enable-background:new 0 0 50 50;" xml:space="preserve">
<style type="text/css">
	.st0{fill:#FFFFFF;stroke:#222222;stroke-width:0.75;stroke-linecap:round;stroke-linejoin:round;stroke-miterlimit:10;}
	.st1{fill:#D0E1FF;stroke:#222222;stroke-width:0.75;stroke-linecap:round;stroke-linejoin:round;stroke-miterlimit:10;}
	.st2{fill:#D0E1FF;}
	.st3{fill:none;stroke:#222222;stroke-width:0.5;stroke-linecap:square;stroke-linejoin:round;stroke-miterlimit:10;}
	.st4{fill:none;stroke:#222222;stroke-width:0.75;stroke-linecap:round;stroke-linejoin:round;stroke-miterlimit:10;}
	.st5{fill:none;stroke:#222222;stroke-width:0.75;stroke-linecap:square;stroke-linejoin:round;stroke-miterlimit:10;}
	.st6{fill:#F6F0ED;stroke:#222222;stroke-width:0.75;stroke-linecap:round;stroke-linejoin:round;stroke-miterlimit:10;}
	.st7{fill:none;stroke:#222222;stroke-width:0.75;}
	.st8{fill:#FFFFFF;stroke:#222222;stroke-width:0.75;}
	.st9{fill:#D0E1FF;stroke:#222222;stroke-width:0.75;stroke-linejoin:round;}
	.st10{fill:none;stroke:#FFFFFF;stroke-width:0.75;stroke-linecap:round;stroke-linejoin:round;}
	.st11{fill:#FFFFFF;stroke:#222222;stroke-width:0.75;stroke-linecap:round;stroke-linejoin:round;}
	.st12{fill:#D0E1FF;stroke:#222222;stroke-width:0.75;stroke-linecap:round;stroke-linejoin:round;}
	.st13{fill:none;stroke:#022222;stroke-width:0.75;stroke-linejoin:round;stroke-miterlimit:10;}
	.st14{fill:none;stroke:#222222;stroke-width:0.75;stroke-linejoin:round;stroke-dasharray:1.9384,4.8459;}
	.st15{fill:#4C4C4C;}
	.st16{fill:#FFFFFF;stroke:#222222;stroke-width:0.75;stroke-linejoin:round;stroke-miterlimit:10;}
	.st17{fill:none;stroke:#222222;stroke-width:0.75;stroke-linejoin:round;stroke-miterlimit:10;}
	.st18{fill:#D0E1FF;stroke:#222222;stroke-width:0.75;stroke-linejoin:round;stroke-miterlimit:10;}
	.st19{fill:#222222;}
	.st20{fill:none;stroke:#222222;stroke-width:0.75;stroke-linecap:round;stroke-miterlimit:10;}
	.st21{fill:#FFFFFF;stroke:#222222;stroke-width:0.75;stroke-linecap:round;}
	.st22{fill:none;stroke:#222222;stroke-width:0.75;stroke-linecap:round;}
	.st23{fill:#D0E1FF;stroke:#222222;stroke-width:0.75;}
	.st24{fill:#F0F7F2;stroke:#222222;stroke-width:0.75;stroke-linecap:round;stroke-linejoin:round;stroke-miterlimit:10;}
	.st25{fill:#FFFFFF;stroke:#24396B;stroke-width:0.75;stroke-linecap:round;stroke-linejoin:round;stroke-miterlimit:10;}
	.st26{fill:#B1CFF0;stroke:#24396B;stroke-width:0.75;stroke-linecap:round;stroke-linejoin:round;stroke-miterlimit:10;}
	.st27{fill:#D0E7EE;}
	.st28{fill:#FFFFFF;}
	.st29{fill:#D0E7EE;stroke:#24396B;stroke-width:0.75;stroke-linecap:round;stroke-linejoin:round;stroke-miterlimit:10;}
	.st30{fill:none;stroke:#B1CFF0;stroke-width:0.5;stroke-linecap:round;stroke-linejoin:round;stroke-miterlimit:10;}
	.st31{fill:#B1CFF0;stroke:#222222;stroke-width:0.75;stroke-linecap:round;stroke-linejoin:round;stroke-miterlimit:10;}
</style>
<rect x="8.5" y="23.2" class="st0" width="33.9" height="20.8"/>
<polygon class="st0" points="13.8,23.2 6,23.2 9.8,17.7 16.1,17.7 "/>
<polygon class="st0" points="21.6,23.2 13.8,23.2 16.1,17.7 22.4,17.7 "/>
<polygon class="st0" points="29.4,23.2 21.6,23.2 22.4,17.7 28.6,17.7 "/>
<polygon class="st0" points="37.2,23.2 29.4,23.2 28.6,17.7 34.9,17.7 "/>
<polygon class="st0" points="45,23.2 37.2,23.2 34.9,17.7 41.2,17.7 "/>
<rect x="9.8" y="9.2" class="st0" width="31.3" height="8.5"/>
<rect x="16.1" y="32.8" class="st0" width="9.4" height="11.2"/>
<rect x="25.5" y="32.8" class="st0" width="9.4" height="11.2"/>
<circle class="st0" cx="25.5" cy="13.4" r="6.6"/>
<path class="st2" d="M42.4,25.7v3.7c-0.3,0.1-0.6,0.1-1,0.1h-0.7c-2,0-3.6-1.6-3.6-3.6c0,2-1.6,3.6-3.6,3.6H33c-2,0-3.6-1.6-3.6-3.6
	c0,2-1.6,3.6-3.6,3.6h-0.7c-2,0-3.6-1.6-3.6-3.6c0,2-1.6,3.6-3.6,3.6h-0.7c-2,0-3.6-1.6-3.6-3.6c0,2-1.6,3.6-3.6,3.6H9.6
	c-0.4,0-0.7-0.1-1-0.2v-3.6H42.4z"/>
<path class="st0" d="M10,27H9.8C7.7,27,6,25.3,6,23.2v0h7.8v0C13.8,25.3,12.1,27,10,27z"/>
<path class="st0" d="M17.8,27h-0.3c-2.1,0-3.8-1.7-3.8-3.8v0h7.8v0C21.6,25.3,19.9,27,17.8,27z"/>
<path class="st0" d="M25.6,27h-0.3c-2.1,0-3.8-1.7-3.8-3.8v0h7.8v0C29.4,25.3,27.7,27,25.6,27z"/>
<path class="st0" d="M33.4,27h-0.3c-2.1,0-3.8-1.7-3.8-3.8v0h7.8v0C37.2,25.3,35.5,27,33.4,27z"/>
<path class="st0" d="M41.2,27H41c-2.1,0-3.8-1.7-3.8-3.8v0H45v0C45,25.3,43.3,27,41.2,27z"/>
<polygon class="st2" points="29.2,12.2 27.1,12.2 27.1,10.2 24.2,10.2 24.2,12.2 22.1,12.2 22.1,15.2 24.2,15.2 24.2,17.2 
	27.1,17.2 27.1,15.2 29.2,15.2 "/>
</svg>
