<?xml version="1.0" encoding="utf-8"?>
<!-- Generator: Adobe Illustrator 22.0.0, SVG Export Plug-In . SVG Version: 6.00 Build 0)  -->
<svg version="1.1" id="Layer_1" xmlns="http://www.w3.org/2000/svg" xmlns:xlink="http://www.w3.org/1999/xlink" x="0px" y="0px"
	 viewBox="0 0 50 50" style="enable-background:new 0 0 50 50;" xml:space="preserve">
<style type="text/css">
	.st0{fill:#FFFFFF;stroke:#222222;stroke-width:0.75;stroke-linecap:round;stroke-linejoin:round;stroke-miterlimit:10;}
	.st1{fill:#D0E1FF;stroke:#222222;stroke-width:0.75;stroke-linecap:round;stroke-linejoin:round;stroke-miterlimit:10;}
	.st2{fill:#D0E1FF;}
	.st3{fill:none;stroke:#222222;stroke-width:0.5;stroke-linecap:square;stroke-linejoin:round;stroke-miterlimit:10;}
	.st4{fill:none;stroke:#222222;stroke-width:0.75;stroke-linecap:round;stroke-linejoin:round;stroke-miterlimit:10;}
	.st5{fill:none;stroke:#222222;stroke-width:0.75;stroke-linecap:square;stroke-linejoin:round;stroke-miterlimit:10;}
	.st6{fill:#F6F0ED;stroke:#222222;stroke-width:0.75;stroke-linecap:round;stroke-linejoin:round;stroke-miterlimit:10;}
	.st7{fill:none;stroke:#222222;stroke-width:0.75;}
	.st8{fill:#FFFFFF;stroke:#222222;stroke-width:0.75;}
	.st9{fill:#D0E1FF;stroke:#222222;stroke-width:0.75;stroke-linejoin:round;}
	.st10{fill:none;stroke:#FFFFFF;stroke-width:0.75;stroke-linecap:round;stroke-linejoin:round;}
	.st11{fill:#FFFFFF;stroke:#222222;stroke-width:0.75;stroke-linecap:round;stroke-linejoin:round;}
	.st12{fill:#D0E1FF;stroke:#222222;stroke-width:0.75;stroke-linecap:round;stroke-linejoin:round;}
	.st13{fill:none;stroke:#022222;stroke-width:0.75;stroke-linejoin:round;stroke-miterlimit:10;}
	.st14{fill:none;stroke:#222222;stroke-width:0.75;stroke-linejoin:round;stroke-dasharray:1.9384,4.8459;}
	.st15{fill:#4C4C4C;}
	.st16{fill:#FFFFFF;stroke:#222222;stroke-width:0.75;stroke-linejoin:round;stroke-miterlimit:10;}
	.st17{fill:none;stroke:#222222;stroke-width:0.75;stroke-linejoin:round;stroke-miterlimit:10;}
	.st18{fill:#D0E1FF;stroke:#222222;stroke-width:0.75;stroke-linejoin:round;stroke-miterlimit:10;}
	.st19{fill:#222222;}
	.st20{fill:none;stroke:#222222;stroke-width:0.75;stroke-linecap:round;stroke-miterlimit:10;}
	.st21{fill:#B1CFF0;stroke:#222222;stroke-width:0.75;stroke-linecap:round;stroke-linejoin:round;stroke-miterlimit:10;}
	.st22{fill:#FFFFFF;stroke:#222222;stroke-width:0.75;stroke-linecap:round;}
	.st23{fill:none;stroke:#222222;stroke-width:0.75;stroke-linecap:round;}
	.st24{fill:#D0E1FF;stroke:#222222;stroke-width:0.75;}
	.st25{fill:#F0F7F2;stroke:#222222;stroke-width:0.75;stroke-linecap:round;stroke-linejoin:round;stroke-miterlimit:10;}
	.st26{fill:#FFFFFF;stroke:#24396B;stroke-width:0.75;stroke-linecap:round;stroke-linejoin:round;stroke-miterlimit:10;}
	.st27{fill:#B1CFF0;stroke:#24396B;stroke-width:0.75;stroke-linecap:round;stroke-linejoin:round;stroke-miterlimit:10;}
	.st28{fill:#D0E7EE;}
	.st29{fill:#FFFFFF;}
	.st30{fill:#D0E7EE;stroke:#24396B;stroke-width:0.75;stroke-linecap:round;stroke-linejoin:round;stroke-miterlimit:10;}
	.st31{fill:none;stroke:#B1CFF0;stroke-width:0.5;stroke-linecap:round;stroke-linejoin:round;stroke-miterlimit:10;}
	.st32{fill:#FFFFFF;stroke:#222222;stroke-linecap:round;stroke-linejoin:round;stroke-miterlimit:10;}
</style>
<path class="st0" d="M35.8,12.2V8.8H26v3.4c0,1.5-0.8,2.9-2.1,3.7l-1.8,1c-1.3,0.7-2.1,2.2-2.1,3.7v19c0,2.1,1.7,3.8,3.8,3.8h14.5
	c2.1,0,3.8-1.7,3.8-3.8v-19c0-1.5-0.8-2.9-2.1-3.7l-1.8-1C36.7,15.1,35.8,13.7,35.8,12.2z"/>
<rect x="24" y="8" class="st0" width="2.8" height="3"/>
<rect x="26.8" y="8" class="st0" width="2.8" height="3"/>
<rect x="29.5" y="8" class="st0" width="2.8" height="3"/>
<path class="st28" d="M41.9,20.5v19c0,2.1-1.7,3.8-3.8,3.8h-3.3c2.1,0,3.8-1.7,3.8-3.8v-19c0-1.5-0.8-2.9-2.1-3.7l-1.8-1
	c-1.3-0.7-2.1-2.1-2.1-3.7V8.8h3.3v3.4c0,1.5,0.8,2.9,2.1,3.7l1.8,1C41.1,17.6,41.9,19,41.9,20.5z"/>
<rect x="35.1" y="8" class="st0" width="2.8" height="3"/>
<rect x="19.9" y="21.5" class="st21" width="22" height="15.3"/>
<polygon class="st29" points="34.2,27.8 32.3,27.8 32.3,25.9 29.5,25.9 29.5,27.8 27.6,27.8 27.6,30.6 29.5,30.6 29.5,32.5 
	32.3,32.5 32.3,30.6 34.2,30.6 "/>
<g>
	<path class="st22" d="M14.7,29.5c0,0-4.6-3.7-7.9,0.4c-3.3,4.2-0.4,16.6,8.3,13.8c0,0,4,1.6,6.8-1.6C24.8,38.8,26.7,24.7,14.7,29.5
		z"/>
	<path class="st23" d="M14.7,29.5c0,0,0.7-5.1-1.5-7.1"/>
	<path class="st22" d="M15,26.3c0,0,0.3-8.5,10.4-7.1C25.4,19.2,23.6,27.2,15,26.3z"/>
	<line class="st22" x1="15" y1="26.3" x2="25.4" y2="19.2"/>
</g>
<rect x="32.3" y="8" class="st0" width="2.8" height="3"/>
</svg>
