<?xml version="1.0" encoding="utf-8"?>
<!-- Generator: Adobe Illustrator 22.0.0, SVG Export Plug-In . SVG Version: 6.00 Build 0)  -->
<svg version="1.1" id="Layer_1" xmlns="http://www.w3.org/2000/svg" xmlns:xlink="http://www.w3.org/1999/xlink" x="0px" y="0px"
	 viewBox="0 0 50 50" style="enable-background:new 0 0 50 50;" xml:space="preserve">
<style type="text/css">
	.st0{fill:#FFFFFF;stroke:#222222;stroke-width:0.75;stroke-linecap:round;stroke-linejoin:round;stroke-miterlimit:10;}
	.st1{fill:#D0E1FF;stroke:#222222;stroke-width:0.75;stroke-linecap:round;stroke-linejoin:round;stroke-miterlimit:10;}
	.st2{fill:#D0E1FF;}
	.st3{fill:none;stroke:#222222;stroke-width:0.5;stroke-linecap:square;stroke-linejoin:round;stroke-miterlimit:10;}
	.st4{fill:none;stroke:#222222;stroke-width:0.75;stroke-linecap:round;stroke-linejoin:round;stroke-miterlimit:10;}
	.st5{fill:none;stroke:#222222;stroke-width:0.75;stroke-linecap:square;stroke-linejoin:round;stroke-miterlimit:10;}
	.st6{fill:#F6F0ED;stroke:#222222;stroke-width:0.75;stroke-linecap:round;stroke-linejoin:round;stroke-miterlimit:10;}
	.st7{fill:none;stroke:#222222;stroke-width:0.75;}
	.st8{fill:#FFFFFF;stroke:#222222;stroke-width:0.75;}
	.st9{fill:#D0E1FF;stroke:#222222;stroke-width:0.75;stroke-linejoin:round;}
	.st10{fill:none;stroke:#FFFFFF;stroke-width:0.75;stroke-linecap:round;stroke-linejoin:round;}
	.st11{fill:#FFFFFF;stroke:#222222;stroke-width:0.75;stroke-linecap:round;stroke-linejoin:round;}
	.st12{fill:#D0E1FF;stroke:#222222;stroke-width:0.75;stroke-linecap:round;stroke-linejoin:round;}
	.st13{fill:none;stroke:#222222;stroke-width:0.75;stroke-linejoin:round;stroke-dasharray:1.9384,4.8459;}
	.st14{fill:#4C4C4C;}
	.st15{fill:#FFFFFF;stroke:#222222;stroke-width:0.75;stroke-linejoin:round;stroke-miterlimit:10;}
	.st16{fill:none;stroke:#222222;stroke-width:0.75;stroke-linejoin:round;stroke-miterlimit:10;}
	.st17{fill:#D0E1FF;stroke:#222222;stroke-width:0.75;stroke-linejoin:round;stroke-miterlimit:10;}
	.st18{fill:#222222;}
	.st19{fill:none;stroke:#222222;stroke-width:0.75;stroke-linecap:round;stroke-miterlimit:10;}
	.st20{fill:#B1CFF0;stroke:#222222;stroke-width:0.75;stroke-linecap:round;stroke-linejoin:round;stroke-miterlimit:10;}
	.st21{fill:#D0E1FF;stroke:#222222;stroke-width:0.75;}
	.st22{fill:#F0F7F2;stroke:#222222;stroke-width:0.75;stroke-linecap:round;stroke-linejoin:round;stroke-miterlimit:10;}
	.st23{fill:#D0E7EE;}
	.st24{fill:#FFFFFF;}
	.st25{fill:#FFFFFF;stroke:#222222;stroke-width:0.75;stroke-linecap:round;}
	.st26{fill:none;stroke:#222222;stroke-width:0.75;stroke-linecap:round;}
	.st27{fill:none;stroke:#222222;stroke-width:0.75;stroke-miterlimit:10;}
	.st28{fill:#FFFFFF;stroke:#222222;stroke-width:0.75;stroke-miterlimit:10;}
</style>
<g>
	<path class="st27" d="M31.8,38.9h-15c-0.4,0-0.6-0.3-0.6-0.6V29C11.7,29.3,8,25.7,8,21.3c0-4.3,3.5-7.8,7.8-7.8c0.3,0,0.6,0,0.9,0
		c0.7-3.7,3.9-6.3,7.6-6.3c3.8,0,7,2.7,7.6,6.3c0.3,0,0.6,0,0.9,0c4.3,0,7.8,3.5,7.8,7.8c0,4.3-3.5,7.8-7.8,7.8c-0.1,0-0.3,0-0.4,0
		v9.2C32.4,38.6,32.1,38.9,31.8,38.9z"/>
</g>
<g>
	<path class="st2" d="M31.4,36.2H17.1c-0.4,0-0.6-0.3-0.6-0.6c0-0.4,0.3-0.6,0.6-0.6h14.3c0.4,0,0.6,0.3,0.6,0.6
		C32.1,35.9,31.8,36.2,31.4,36.2z"/>
</g>
<g>
	<g>
		<path class="st2" d="M20.4,32.8c-0.4,0-0.6-0.3-0.6-0.6v-5.3c0-0.4,0.3-0.6,0.6-0.6c0.4,0,0.6,0.3,0.6,0.6v5.3
			C21,32.5,20.7,32.8,20.4,32.8z"/>
	</g>
	<g>
		<path class="st2" d="M24.3,32.8c-0.4,0-0.6-0.3-0.6-0.6v-5.3c0-0.4,0.3-0.6,0.6-0.6c0.4,0,0.6,0.3,0.6,0.6v5.3
			C24.9,32.5,24.6,32.8,24.3,32.8z"/>
	</g>
	<g>
		<path class="st2" d="M28.2,32.8c-0.4,0-0.6-0.3-0.6-0.6v-5.3c0-0.4,0.3-0.6,0.6-0.6s0.6,0.3,0.6,0.6v5.3
			C28.8,32.5,28.5,32.8,28.2,32.8z"/>
	</g>
</g>
<path class="st28" d="M42,43.8H29.3c-0.1,0-0.3-0.1-0.3-0.2c-0.1-0.1-0.1-0.2-0.1-0.4l2.9-16.8c0,0,0.6-2.7-0.6-4
	c-0.1-0.1-0.1-0.2-0.1-0.4c0-0.1,0.1-0.3,0.2-0.3l1.5-0.7c0.2-0.1,0.4,0,0.5,0.1c0.8,1,1.5,1.5,2.3,1.5c0,0,0,0,0,0
	c1.1,0,2-1.2,2.3-1.5c0.1-0.2,0.4-0.2,0.6-0.1l1.5,0.7c0.1,0.1,0.2,0.2,0.2,0.3c0,0.1,0,0.3-0.1,0.4c-1.2,1.3-0.6,4-0.6,4l2.9,16.8
	c0,0.1,0,0.3-0.1,0.4C42.2,43.8,42.1,43.8,42,43.8z"/>
<path class="st2" d="M35.7,24.3c-1.2,0-2.3-0.8-3.3-2.2c-0.1-0.1,0-0.2,0.1-0.3c0.1-0.1,0.2,0,0.3,0.1c1,1.4,2,2.1,3,2.1
	c1.5,0,2.6-1.6,2.9-2c0.1-0.1,0.2-0.1,0.3-0.1C39,21.9,39,22,39,22.1C38.5,22.8,37.3,24.3,35.7,24.3C35.7,24.3,35.7,24.3,35.7,24.3z
	"/>
</svg>
