<svg xmlns="http://www.w3.org/2000/svg" viewBox="0 0 500 500"><defs><style>.cls-1{isolation:isolate;}.cls-2{fill:#fff;stroke:#000;stroke-linejoin:round;stroke-width:13px;}.cls-3{fill:#e3e3e3;mix-blend-mode:multiply;}</style></defs><title>myinfo</title><g class="cls-1"><g id="Layer_1" data-name="Layer 1"><path class="cls-2" d="M297,247.81v-.47c0-9.64,4.85-18.26,12-24.72a52.86,52.86,0,0,0,17.6-39.41V122.47A53.47,53.47,0,0,0,273.18,69H230.86a53.47,53.47,0,0,0-53.47,53.47v60.74A52.83,52.83,0,0,0,195,222.61c7.16,6.46,12,15.09,12,24.73v.47a31.48,31.48,0,0,1-22.9,30.28l-46.92,13.28A52.63,52.63,0,0,0,98.89,342v89H405.15V342a52.62,52.62,0,0,0-38.28-50.63l-46.93-13.28A31.49,31.49,0,0,1,297,247.81Z"/><path class="cls-3" d="M405.15,342a52.62,52.62,0,0,0-38.28-50.63l-46.93-13.28A31.49,31.49,0,0,1,297,247.81v-.47c0-9.64,4.85-18.26,12-24.72a52.86,52.86,0,0,0,17.6-39.41V122.47A53.47,53.47,0,0,0,273.18,69H230.86A53.26,53.26,0,0,0,191,86.88,53.08,53.08,0,0,1,208.13,84h42.32a53.46,53.46,0,0,1,53.46,53.47v60.74a52.86,52.86,0,0,1-17.6,39.41c-7.16,6.46-12,15.08-12,24.72v.47a31.47,31.47,0,0,0,22.89,30.28l46.93,13.28A52.62,52.62,0,0,1,382.41,357v74h22.74Z"/></g></g></svg>