<?xml version="1.0" encoding="utf-8"?>
<!-- Generator: Adobe Illustrator 22.0.0, SVG Export Plug-In . SVG Version: 6.00 Build 0)  -->
<svg version="1.1" id="Layer_1" xmlns="http://www.w3.org/2000/svg" xmlns:xlink="http://www.w3.org/1999/xlink" x="0px" y="0px"
	 viewBox="0 0 50 50" style="enable-background:new 0 0 50 50;" xml:space="preserve">
<style type="text/css">
	.st0{fill:#FFFFFF;stroke:#222222;stroke-width:0.75;stroke-linecap:round;stroke-linejoin:round;stroke-miterlimit:10;}
	.st1{fill:#D0E1FF;stroke:#222222;stroke-width:0.75;stroke-linecap:round;stroke-linejoin:round;stroke-miterlimit:10;}
	.st2{fill:#D0E1FF;}
	.st3{fill:none;stroke:#222222;stroke-width:0.5;stroke-linecap:square;stroke-linejoin:round;stroke-miterlimit:10;}
	.st4{fill:none;stroke:#222222;stroke-width:0.75;stroke-linecap:round;stroke-linejoin:round;stroke-miterlimit:10;}
	.st5{fill:none;stroke:#222222;stroke-width:0.75;stroke-linecap:square;stroke-linejoin:round;stroke-miterlimit:10;}
	.st6{fill:#F6F0ED;stroke:#222222;stroke-width:0.75;stroke-linecap:round;stroke-linejoin:round;stroke-miterlimit:10;}
	.st7{fill:none;stroke:#222222;stroke-width:0.75;}
	.st8{fill:#FFFFFF;stroke:#222222;stroke-width:0.75;}
	.st9{fill:#D0E1FF;stroke:#222222;stroke-width:0.75;stroke-linejoin:round;}
	.st10{fill:none;stroke:#FFFFFF;stroke-width:0.75;stroke-linecap:round;stroke-linejoin:round;}
	.st11{fill:#FFFFFF;stroke:#222222;stroke-width:0.75;stroke-linecap:round;stroke-linejoin:round;}
	.st12{fill:none;stroke:#222222;stroke-width:0.75;stroke-linecap:round;stroke-linejoin:round;}
	.st13{fill:#FFFFFF;}
	.st14{fill:none;stroke:#222222;stroke-width:0.75;stroke-linejoin:round;stroke-dasharray:1.9384,4.8459;}
	.st15{fill:#4C4C4C;}
	.st16{fill:#FFFFFF;stroke:#222222;stroke-width:0.75;stroke-linejoin:round;stroke-miterlimit:10;}
	.st17{fill:none;stroke:#222222;stroke-width:0.75;stroke-linejoin:round;stroke-miterlimit:10;}
	.st18{fill:#D0E1FF;stroke:#222222;stroke-width:0.75;stroke-linejoin:round;stroke-miterlimit:10;}
	.st19{fill:#D0E1FF;stroke:#222222;stroke-width:0.75;stroke-linecap:round;stroke-linejoin:round;}
	.st20{fill:#222222;}
	.st21{fill:#D0E1FF;stroke:#222222;stroke-width:0.75;}
	.st22{fill:#F0F7F2;stroke:#222222;stroke-width:0.75;stroke-linecap:round;stroke-linejoin:round;stroke-miterlimit:10;}
	.st23{fill:#D0E7EE;}
	.st24{fill:#B1CFF0;stroke:#222222;stroke-width:0.75;stroke-linecap:round;stroke-linejoin:round;stroke-miterlimit:10;}
	.st25{fill:#FFFFFF;stroke:#222222;stroke-width:0.75;stroke-linecap:round;}
	.st26{fill:none;stroke:#222222;stroke-width:0.75;stroke-linecap:round;}
	.st27{fill:none;stroke:#222222;stroke-width:0.75;stroke-miterlimit:10;}
	.st28{fill:#FFFFFF;stroke:#222222;stroke-width:0.75;stroke-miterlimit:10;}
	.st29{fill:#CCCCCC;stroke:#222222;stroke-width:0.75;stroke-linecap:round;stroke-linejoin:round;stroke-miterlimit:10;}
	.st30{fill:#FFFFFF;stroke:#000000;stroke-width:0.75;stroke-linecap:round;stroke-linejoin:round;stroke-miterlimit:10;}
	.st31{fill:none;stroke:#000000;stroke-width:0.75;stroke-linecap:round;stroke-linejoin:round;stroke-miterlimit:10;}
	.st32{fill:#C3E0FC;stroke:#222222;stroke-width:0.75;stroke-linecap:round;stroke-linejoin:round;stroke-miterlimit:10;}
</style>
<g>
	<polygon class="st0" points="40.9,41.7 12,41.7 9.4,23 43.5,23 	"/>
	<path class="st4" d="M38.2,20.9l-8-11.7c-0.5-0.8,0-1.8,1-1.8l0,0"/>
	<path class="st4" d="M14.6,20.9l8-11.7c0.5-0.8,0-1.8-1-1.8h-0.2"/>
	<g>
		<line class="st6" x1="15.8" y1="27" x2="16.2" y2="38"/>
		<path class="st0" d="M16.2,39.4c-0.7,0-1.3-0.6-1.3-1.3l-0.4-11c0-0.7,0.6-1.4,1.3-1.4c0.7,0,1.4,0.6,1.4,1.3l0.4,11
			C17.5,38.7,17,39.4,16.2,39.4C16.2,39.4,16.2,39.4,16.2,39.4z"/>
	</g>
	<g>
		<line class="st6" x1="21.3" y1="27" x2="21.3" y2="38"/>
		<path class="st0" d="M21.3,39.4c-0.7,0-1.3-0.6-1.3-1.3V27c0-0.7,0.6-1.3,1.3-1.3s1.3,0.6,1.3,1.3v11C22.6,38.8,22,39.4,21.3,39.4
			z"/>
	</g>
	<g>
		<line class="st6" x1="26.5" y1="27" x2="26.5" y2="38"/>
		<path class="st0" d="M26.5,39.4c-0.7,0-1.3-0.6-1.3-1.3V27c0-0.7,0.6-1.3,1.3-1.3c0.7,0,1.3,0.6,1.3,1.3v11
			C27.9,38.8,27.3,39.4,26.5,39.4z"/>
	</g>
	<g>
		<line class="st6" x1="31.8" y1="27" x2="31.8" y2="38"/>
		<path class="st0" d="M31.8,39.4c-0.7,0-1.3-0.6-1.3-1.3V27c0-0.7,0.6-1.3,1.3-1.3c0.7,0,1.3,0.6,1.3,1.3v11
			C33.2,38.8,32.6,39.4,31.8,39.4z"/>
	</g>
	<g>
		<line class="st6" x1="37.1" y1="27" x2="37.1" y2="38"/>
		<path class="st0" d="M37.1,39.4c-0.7,0-1.3-0.6-1.3-1.3V27c0-0.7,0.6-1.3,1.3-1.3c0.7,0,1.3,0.6,1.3,1.3v11
			C38.4,38.8,37.8,39.4,37.1,39.4z"/>
	</g>
	<path class="st0" d="M46,20.9c0,1.1-0.9,2-2,2H8.9c-1.1,0-2-0.9-2-2l0,0c0-1.1,0.9-2,2-2H44C45.1,18.9,46,19.8,46,20.9L46,20.9z"/>
</g>
</svg>
