<?xml version="1.0" encoding="utf-8"?>
<!-- Generator: Adobe Illustrator 22.0.0, SVG Export Plug-In . SVG Version: 6.00 Build 0)  -->
<svg version="1.1" id="Layer_1" xmlns="http://www.w3.org/2000/svg" xmlns:xlink="http://www.w3.org/1999/xlink" x="0px" y="0px"
	 viewBox="0 0 50 50" style="enable-background:new 0 0 50 50;" xml:space="preserve">
<style type="text/css">
	.st0{fill:#FFFFFF;stroke:#222222;stroke-width:0.75;stroke-linecap:round;stroke-linejoin:round;stroke-miterlimit:10;}
	.st1{fill:#D0E1FF;stroke:#222222;stroke-width:0.75;stroke-linecap:round;stroke-linejoin:round;stroke-miterlimit:10;}
	.st2{fill:#D0E1FF;}
	.st3{fill:none;stroke:#222222;stroke-width:0.5;stroke-linecap:square;stroke-linejoin:round;stroke-miterlimit:10;}
	.st4{fill:none;stroke:#222222;stroke-width:0.75;stroke-linecap:round;stroke-linejoin:round;stroke-miterlimit:10;}
	.st5{fill:none;stroke:#222222;stroke-width:0.75;stroke-linecap:square;stroke-linejoin:round;stroke-miterlimit:10;}
	.st6{fill:#F6F0ED;stroke:#222222;stroke-width:0.75;stroke-linecap:round;stroke-linejoin:round;stroke-miterlimit:10;}
	.st7{fill:none;stroke:#222222;stroke-width:0.75;}
	.st8{fill:#FFFFFF;stroke:#222222;stroke-width:0.75;}
	.st9{fill:#D0E1FF;stroke:#222222;stroke-width:0.75;stroke-linejoin:round;}
	.st10{fill:none;stroke:#FFFFFF;stroke-width:0.75;stroke-linecap:round;stroke-linejoin:round;}
	.st11{fill:#FFFFFF;stroke:#222222;stroke-width:0.75;stroke-linecap:round;stroke-linejoin:round;}
	.st12{fill:none;stroke:#222222;stroke-width:0.75;stroke-linecap:round;stroke-linejoin:round;}
	.st13{fill:#FFFFFF;}
	.st14{fill:none;stroke:#222222;stroke-width:0.75;stroke-linejoin:round;stroke-dasharray:1.9384,4.8459;}
	.st15{fill:#4C4C4C;}
	.st16{fill:#FFFFFF;stroke:#222222;stroke-width:0.75;stroke-linejoin:round;stroke-miterlimit:10;}
	.st17{fill:none;stroke:#222222;stroke-width:0.75;stroke-linejoin:round;stroke-miterlimit:10;}
	.st18{fill:#D0E1FF;stroke:#222222;stroke-width:0.75;stroke-linejoin:round;stroke-miterlimit:10;}
	.st19{fill:#D0E1FF;stroke:#222222;stroke-width:0.75;stroke-linecap:round;stroke-linejoin:round;}
	.st20{fill:#222222;}
	.st21{fill:#D0E1FF;stroke:#222222;stroke-width:0.75;}
	.st22{fill:#F0F7F2;stroke:#222222;stroke-width:0.75;stroke-linecap:round;stroke-linejoin:round;stroke-miterlimit:10;}
	.st23{fill:#D0E7EE;}
	.st24{fill:#B1CFF0;stroke:#222222;stroke-width:0.75;stroke-linecap:round;stroke-linejoin:round;stroke-miterlimit:10;}
	.st25{fill:#FFFFFF;stroke:#222222;stroke-width:0.75;stroke-linecap:round;}
	.st26{fill:none;stroke:#222222;stroke-width:0.75;stroke-linecap:round;}
	.st27{fill:none;stroke:#222222;stroke-width:0.75;stroke-miterlimit:10;}
	.st28{fill:#FFFFFF;stroke:#222222;stroke-width:0.75;stroke-miterlimit:10;}
	.st29{fill:#CCCCCC;stroke:#222222;stroke-width:0.75;stroke-linecap:round;stroke-linejoin:round;stroke-miterlimit:10;}
	.st30{fill:#FFFFFF;stroke:#000000;stroke-width:0.75;stroke-linecap:round;stroke-linejoin:round;stroke-miterlimit:10;}
	.st31{fill:none;stroke:#000000;stroke-width:0.75;stroke-linecap:round;stroke-linejoin:round;stroke-miterlimit:10;}
	.st32{fill:#C3E0FC;stroke:#222222;stroke-width:0.75;stroke-linecap:round;stroke-linejoin:round;stroke-miterlimit:10;}
</style>
<g>
	<g>
		<path class="st11" d="M19.2,37.5c0,0,0.1,3.9-0.6,4.5c-0.7,0.6-1.6,1.1-1.5,1.2c0.1,0.2,0.3,0.1,0.3,0.1h4.4h2h4.4
			c0,0,0.2,0.1,0.3-0.1c0.1-0.2-0.9-0.6-1.5-1.2c-0.7-0.6-0.6-4.5-0.6-4.5"/>
		<path class="st11" d="M40.1,37.1c0,0.3-0.3,0.6-0.6,0.6H6.2c-0.3,0-0.6-0.3-0.6-0.6V14.8c0-0.3,0.3-0.6,0.6-0.6h33.4
			c0.3,0,0.6,0.3,0.6,0.6V37.1z"/>
		<path class="st12" d="M5.6,37.1c0,0.3,0.3,0.6,0.6,0.6h33.4c0.3,0,0.6-0.3,0.6-0.6v-3.5H5.6V37.1z"/>
	</g>
	<g>
		<g>
			<g>
				<path class="st11" d="M46,9.4c0-0.6-0.5-1.1-1.1-1.1H24.6c-0.6,0-1.1,0.5-1.1,1.1v3.1H46V9.4z"/>
				<path class="st11" d="M23.5,12.4v15.7c0,0.6,0.5,1.1,1.1,1.1h20.3c0.6,0,1.1-0.5,1.1-1.1V12.4H23.5z"/>
			</g>
			<line class="st11" x1="40.1" y1="10.3" x2="41.1" y2="10.3"/>
			<line class="st11" x1="42.7" y1="10.3" x2="43.7" y2="10.3"/>
			<line class="st11" x1="25.8" y1="10.3" x2="26.8" y2="10.3"/>
		</g>
		<line class="st11" x1="25.9" y1="15.7" x2="43.8" y2="15.7"/>
		<line class="st11" x1="25.9" y1="19.4" x2="43.8" y2="19.4"/>
		<line class="st11" x1="25.9" y1="23.2" x2="43.8" y2="23.2"/>
	</g>
</g>
</svg>
