<?xml version="1.0" encoding="utf-8"?>
<!-- Generator: Adobe Illustrator 22.0.0, SVG Export Plug-In . SVG Version: 6.00 Build 0)  -->
<svg version="1.1" id="Layer_1" xmlns="http://www.w3.org/2000/svg" xmlns:xlink="http://www.w3.org/1999/xlink" x="0px" y="0px"
	 viewBox="0 0 50 50" style="enable-background:new 0 0 50 50;" xml:space="preserve">
<style type="text/css">
	.st0{fill:#FFFFFF;stroke:#222222;stroke-width:0.75;stroke-linecap:round;stroke-linejoin:round;stroke-miterlimit:10;}
	.st1{fill:#D0E1FF;stroke:#222222;stroke-width:0.75;stroke-linecap:round;stroke-linejoin:round;stroke-miterlimit:10;}
	.st2{fill:#D0E1FF;}
	.st3{fill:none;stroke:#222222;stroke-width:0.5;stroke-linecap:square;stroke-linejoin:round;stroke-miterlimit:10;}
	.st4{fill:none;stroke:#222222;stroke-width:0.75;stroke-linecap:round;stroke-linejoin:round;stroke-miterlimit:10;}
	.st5{fill:none;stroke:#222222;stroke-width:0.75;stroke-linecap:square;stroke-linejoin:round;stroke-miterlimit:10;}
	.st6{fill:#F6F0ED;stroke:#222222;stroke-width:0.75;stroke-linecap:round;stroke-linejoin:round;stroke-miterlimit:10;}
	.st7{fill:none;stroke:#222222;stroke-width:0.75;}
	.st8{fill:#FFFFFF;stroke:#222222;stroke-width:0.75;}
	.st9{fill:#D0E1FF;stroke:#222222;stroke-width:0.75;stroke-linejoin:round;}
	.st10{fill:none;stroke:#FFFFFF;stroke-width:0.75;stroke-linecap:round;stroke-linejoin:round;}
	.st11{fill:#FFFFFF;stroke:#222222;stroke-width:0.75;stroke-linecap:round;stroke-linejoin:round;}
	.st12{fill:#D0E1FF;stroke:#222222;stroke-width:0.75;stroke-linecap:round;stroke-linejoin:round;}
	.st13{fill:none;stroke:#022222;stroke-width:0.75;stroke-linejoin:round;stroke-miterlimit:10;}
	.st14{fill:none;stroke:#222222;stroke-width:0.75;stroke-linejoin:round;stroke-dasharray:1.9384,4.8459;}
	.st15{fill:#4C4C4C;}
	.st16{fill:#FFFFFF;stroke:#222222;stroke-width:0.75;stroke-linejoin:round;stroke-miterlimit:10;}
	.st17{fill:none;stroke:#222222;stroke-width:0.75;stroke-linejoin:round;stroke-miterlimit:10;}
	.st18{fill:#D0E1FF;stroke:#222222;stroke-width:0.75;stroke-linejoin:round;stroke-miterlimit:10;}
	.st19{fill:#222222;}
	.st20{fill:none;stroke:#222222;stroke-width:0.75;stroke-linecap:round;stroke-miterlimit:10;}
	.st21{fill:#FFFFFF;stroke:#222222;stroke-width:0.75;stroke-linecap:round;}
	.st22{fill:none;stroke:#222222;stroke-width:0.75;stroke-linecap:round;}
	.st23{fill:#D0E1FF;stroke:#222222;stroke-width:0.75;}
	.st24{fill:#F0F7F2;stroke:#222222;stroke-width:0.75;stroke-linecap:round;stroke-linejoin:round;stroke-miterlimit:10;}
	.st25{fill:#FFFFFF;stroke:#24396B;stroke-width:0.75;stroke-linecap:round;stroke-linejoin:round;stroke-miterlimit:10;}
	.st26{fill:#B1CFF0;stroke:#24396B;stroke-width:0.75;stroke-linecap:round;stroke-linejoin:round;stroke-miterlimit:10;}
	.st27{fill:#D0E7EE;}
	.st28{fill:#FFFFFF;}
	.st29{fill:#D0E7EE;stroke:#24396B;stroke-width:0.75;stroke-linecap:round;stroke-linejoin:round;stroke-miterlimit:10;}
	.st30{fill:none;stroke:#B1CFF0;stroke-width:0.5;stroke-linecap:round;stroke-linejoin:round;stroke-miterlimit:10;}
	.st31{fill:#B1CFF0;stroke:#222222;stroke-width:0.75;stroke-linecap:round;stroke-linejoin:round;stroke-miterlimit:10;}
</style>
<g>
	<path class="st4" d="M9.6,14.6c0,0,9.4-4.1,16.1,0"/>
	<path class="st4" d="M41.7,14.6c0,0-9.4-4.1-16.1,0"/>
	<rect x="23.8" y="15" class="st4" width="3.7" height="20"/>
	<path class="st4" d="M28.8,39h-6.9c-0.8,0-1.5-0.7-1.5-1.5v-1c0-0.8,0.7-1.5,1.5-1.5h6.9c0.8,0,1.5,0.7,1.5,1.5v1
		C30.4,38.3,29.7,39,28.8,39z"/>
	<rect x="16.8" y="37" class="st24" width="17.9" height="2"/>
	<circle class="st1" cx="25.7" cy="14.5" r="2.1"/>
	<path class="st1" d="M15.8,29.1H6.4c-0.5,0-1-0.4-1-1v-0.7c0-0.5,0.4-1,1-1h9.4c0.5,0,1,0.4,1,1v0.7C16.8,28.6,16.3,29.1,15.8,29.1
		z"/>
	<line class="st4" x1="6.4" y1="26.4" x2="11.1" y2="14.5"/>
	<line class="st4" x1="15.7" y1="26.4" x2="11.1" y2="14.5"/>
	<path class="st1" d="M45,29.1h-9.4c-0.5,0-1-0.4-1-1v-0.7c0-0.5,0.4-1,1-1H45c0.5,0,1,0.4,1,1v0.7C46,28.6,45.6,29.1,45,29.1z"/>
	<line class="st4" x1="35.6" y1="26.4" x2="40.3" y2="14.5"/>
	<line class="st4" x1="45" y1="26.4" x2="40.3" y2="14.5"/>
</g>
</svg>
