<?xml version="1.0" encoding="utf-8"?>
<!-- Generator: Adobe Illustrator 22.0.0, SVG Export Plug-In . SVG Version: 6.00 Build 0)  -->
<svg version="1.1" id="Layer_1" xmlns="http://www.w3.org/2000/svg" xmlns:xlink="http://www.w3.org/1999/xlink" x="0px" y="0px"
	 viewBox="0 0 50 50" style="enable-background:new 0 0 50 50;" xml:space="preserve">
<style type="text/css">
	.st0{fill:#FFFFFF;stroke:#222222;stroke-width:0.75;stroke-linecap:round;stroke-linejoin:round;stroke-miterlimit:10;}
	.st1{fill:#D0E1FF;stroke:#222222;stroke-width:0.75;stroke-linecap:round;stroke-linejoin:round;stroke-miterlimit:10;}
	.st2{fill:#D0E1FF;}
	.st3{fill:none;stroke:#222222;stroke-width:0.5;stroke-linecap:square;stroke-linejoin:round;stroke-miterlimit:10;}
	.st4{fill:none;stroke:#222222;stroke-width:0.75;stroke-linecap:round;stroke-linejoin:round;stroke-miterlimit:10;}
	.st5{fill:none;stroke:#222222;stroke-width:0.75;stroke-linecap:square;stroke-linejoin:round;stroke-miterlimit:10;}
	.st6{fill:#F6F0ED;stroke:#222222;stroke-width:0.75;stroke-linecap:round;stroke-linejoin:round;stroke-miterlimit:10;}
	.st7{fill:none;stroke:#222222;stroke-width:0.75;}
	.st8{fill:#FFFFFF;stroke:#222222;stroke-width:0.75;}
	.st9{fill:#D0E1FF;stroke:#222222;stroke-width:0.75;stroke-linejoin:round;}
	.st10{fill:none;stroke:#FFFFFF;stroke-width:0.75;stroke-linecap:round;stroke-linejoin:round;}
	.st11{fill:#FFFFFF;stroke:#222222;stroke-width:0.75;stroke-linecap:round;stroke-linejoin:round;}
	.st12{fill:#D0E1FF;stroke:#222222;stroke-width:0.75;stroke-linecap:round;stroke-linejoin:round;}
	.st13{fill:none;stroke:#022222;stroke-width:0.75;stroke-linejoin:round;stroke-miterlimit:10;}
	.st14{fill:none;stroke:#222222;stroke-width:0.75;stroke-linejoin:round;stroke-dasharray:1.9384,4.8459;}
	.st15{fill:#4C4C4C;}
	.st16{fill:#FFFFFF;stroke:#222222;stroke-width:0.75;stroke-linejoin:round;stroke-miterlimit:10;}
	.st17{fill:none;stroke:#222222;stroke-width:0.75;stroke-linejoin:round;stroke-miterlimit:10;}
	.st18{fill:#D0E1FF;stroke:#222222;stroke-width:0.75;stroke-linejoin:round;stroke-miterlimit:10;}
	.st19{fill:#222222;}
	.st20{fill:none;stroke:#222222;stroke-width:0.75;stroke-linecap:round;stroke-miterlimit:10;}
	.st21{fill:#B1CFF0;stroke:#222222;stroke-width:0.75;stroke-linecap:round;stroke-linejoin:round;stroke-miterlimit:10;}
	.st22{fill:#FFFFFF;stroke:#222222;stroke-width:0.75;stroke-linecap:round;}
	.st23{fill:none;stroke:#222222;stroke-width:0.75;stroke-linecap:round;}
	.st24{fill:#D0E1FF;stroke:#222222;stroke-width:0.75;}
	.st25{fill:#F0F7F2;stroke:#222222;stroke-width:0.75;stroke-linecap:round;stroke-linejoin:round;stroke-miterlimit:10;}
	.st26{fill:#FFFFFF;stroke:#24396B;stroke-width:0.75;stroke-linecap:round;stroke-linejoin:round;stroke-miterlimit:10;}
	.st27{fill:#B1CFF0;stroke:#24396B;stroke-width:0.75;stroke-linecap:round;stroke-linejoin:round;stroke-miterlimit:10;}
	.st28{fill:#D0E7EE;}
	.st29{fill:#FFFFFF;}
	.st30{fill:#D0E7EE;stroke:#24396B;stroke-width:0.75;stroke-linecap:round;stroke-linejoin:round;stroke-miterlimit:10;}
	.st31{fill:none;stroke:#B1CFF0;stroke-width:0.5;stroke-linecap:round;stroke-linejoin:round;stroke-miterlimit:10;}
</style>
<path class="st0" d="M32.7,26.5c-0.9-2.9-3.7-5-6.9-5c-3.2,0-5.9,2.1-6.9,5c-3.3,1.1-5.6,4.5-4.9,8.3c0.5,2.9,2.9,5.2,5.8,5.7
	c1.1,0.2,2.2,0.1,3.2-0.2c1.7-0.5,3.6-0.5,5.3,0c1,0.3,2.1,0.4,3.2,0.2c2.9-0.5,5.3-2.8,5.8-5.7C38.3,30.9,36,27.5,32.7,26.5z"/>
<ellipse transform="matrix(0.803 -0.596 0.596 0.803 -10.8319 11.3083)" class="st0" cx="11.7" cy="22" rx="2.8" ry="3.7"/>
<ellipse transform="matrix(0.9251 -0.3797 0.3797 0.9251 -4.0429 8.6419)" class="st0" cx="19.9" cy="14.6" rx="3.1" ry="4.1"/>
<ellipse transform="matrix(0.596 -0.803 0.803 0.596 -1.6043 40.8852)" class="st0" cx="39.8" cy="22" rx="3.7" ry="2.8"/>
<ellipse transform="matrix(0.3797 -0.9251 0.9251 0.3797 6.2 38.3886)" class="st0" cx="31.7" cy="14.6" rx="4.1" ry="3.1"/>
<path class="st2" d="M37.1,35.3c-0.5,2.9-3.2,4.3-6.1,4.8c-1.1,0.2-1.5,0-2.5-0.3c-0.2-0.1-0.9-0.1-1.1-0.2c2.3-0.8,4.3-1.9,4.7-4.4
	c0.7-3.8-1.6-7.2-4.9-8.3c-0.7-2.1-2.3-3.8-4.3-4.5c0.8-0.3,1.6-0.5,2.5-0.5c3.2,0,5.9,2.1,6.9,5C35.5,28.1,37.8,31.5,37.1,35.3z"/>
</svg>
