<svg xmlns="http://www.w3.org/2000/svg" viewBox="0 0 500 500"><defs><style>.cls-1{isolation:isolate;}.cls-2{fill:#2ca4ee;}.cls-3{mix-blend-mode:multiply;}.cls-4{fill:#e3e3e3;}</style></defs><title>store-set</title><g class="cls-1"><g id="Layer_1" data-name="Layer 1"><path id="Shape" d="M416.34,266.17V228.12a32.35,32.35,0,0,0,25.88-31.7,58.25,58.25,0,0,0-.58-15.6L393.37,78.13A19.43,19.43,0,0,0,375.76,67H145.47a19.41,19.41,0,0,0-16.7,9.58C62.83,188.52,67.75,180,67.23,181.79a59.21,59.21,0,0,0-.32,14.63,32.35,32.35,0,0,0,25.88,31.7V377.6a38.84,38.84,0,0,0,38.83,38.83H266.08A106.71,106.71,0,1,0,416.34,266.17Zm-6.47-50.34a19.41,19.41,0,0,1-19.42-19.41V190h38.83v6.47A19.41,19.41,0,0,1,409.87,215.83ZM194.65,79.94,171.8,177h-37l40-97.06Zm33.64,0L222.6,177H185.07l22.84-97.06Zm72.93,0L324.06,177H286.53l-5.69-97.06Zm33.13,0,40,97.06h-37L314.49,79.94ZM273.59,177h-38l5.7-97.06H267.9ZM131.62,190h38.82v6.47a19.41,19.41,0,1,1-38.82,0Zm51.77,0h38.82v6.47a19.41,19.41,0,1,1-38.82,0Zm51.76,0H274v6.47a19.42,19.42,0,0,1-38.83,0Zm51.77,0h38.82v6.47a19.41,19.41,0,0,1-38.82,0Zm51.77,0h38.82v6.47a19.41,19.41,0,1,1-38.82,0Zm42.9-106.32L425.53,177H388.32l-40-97.06h27.43a6.48,6.48,0,0,1,5.83,3.69ZM139.9,83.11a6.49,6.49,0,0,1,5.57-3.17H160.8l-40,97.06H84.71ZM79.85,196.42V190h38.83v6.47a19.42,19.42,0,0,1-38.83,0Zm25.89,174.71v-143a32.37,32.37,0,0,0,19.41-12.29,32.36,32.36,0,0,0,51.77,0,32.35,32.35,0,0,0,51.76,0,32.36,32.36,0,0,0,51.77,0,32.36,32.36,0,0,0,51.77,0,32.35,32.35,0,0,0,51.76,0,32.4,32.4,0,0,0,19.41,12.49v29c-79.59-47.95-179.17,22.26-159.31,113.82m4,12.94a109.38,109.38,0,0,0,9.19,19.41H131.62a25.87,25.87,0,0,1-25-19.41m241.75,58.24a93.83,93.83,0,1,1,93.83-93.83A93.82,93.82,0,0,1,348.39,442.31Z"/><path class="cls-2" d="M398,333.48l-.61-.22L395,327.58l.26-.59c7.22-16.36,6.72-16.85,5.52-18l-9.62-9.39a2.6,2.6,0,0,0-1.68-.67c-.54,0-2.18,0-16.4,6.44l-.57.26-5.86-2.37-.24-.58c-6.68-16.55-7.37-16.55-9-16.55H343.82c-1.66,0-2.42,0-8.61,16.58l-.24.6-5.83,2.38-.56-.23c-9.62-4.06-15.24-6.11-16.7-6.11a2.59,2.59,0,0,0-1.69.65l-9.63,9.42c-1.22,1.2-1.73,1.71,5.86,17.73l.28.59-2.38,5.68-.59.23c-16.94,6.55-16.94,7.18-16.94,8.89v13.32c0,1.71,0,2.42,17,8.5l.6.22,2.39,5.66-.26.58c-7.21,16.37-6.75,16.81-5.53,18l9.61,9.41a2.7,2.7,0,0,0,1.7.66c.54,0,2.17,0,16.4-6.44l.57-.26,5.87,2.37.22.59c6.69,16.54,7.38,16.54,9,16.54H358c1.71,0,2.42,0,8.62-16.59l.23-.6,5.84-2.36.56.22c9.61,4.07,15.23,6.12,16.68,6.12a2.56,2.56,0,0,0,1.69-.65l9.65-9.44c1.22-1.21,1.72-1.71-5.88-17.71l-.29-.61,2.38-5.65.57-.22c17-6.58,17-7.22,17-8.93V342C415,340.25,415,339.54,398,333.48Zm-47.12,37a21.6,21.6,0,1,1,22-21.6A21.85,21.85,0,0,1,350.9,370.5Z"/><g class="cls-3"><g class="cls-3"><path class="cls-4" d="M449,351.86a100.87,100.87,0,0,0-155.86-84.55,100.87,100.87,0,0,1,95.18,177.08A100.87,100.87,0,0,0,449,351.86Z"/></g></g></g></g></svg>