<svg id="Layer_1" data-name="Layer 1" xmlns="http://www.w3.org/2000/svg" viewBox="0 0 500 500"><defs><style>.cls-1{fill:#3ab3ef;opacity:0.5;}.cls-2{fill:none;}.cls-2,.cls-3{stroke:#222;stroke-linejoin:round;stroke-width:15px;}.cls-3{fill:#e3e3e3;}.cls-4{fill:#333;}</style></defs><title>pay-history</title><path class="cls-1" d="M372.09,415H163.7c-4.84,0-8.76-6.78-8.76-15.15v-31.7c0-8.37-6.76-15.15-1.92-15.15H380.85c4.84,0,0,6.78,0,15.15v31.7C380.85,408.22,376.93,415,372.09,415Z"/><path class="cls-2" d="M148.36,107.05V384.27H324.2A30.73,30.73,0,0,0,355.79,415c16.73-.46,29.86-14.61,29.86-31.36V106.42a22,22,0,0,0-22-22H171A22.65,22.65,0,0,0,148.36,107.05Z"/><path class="cls-3" d="M324.2,384.27H86.9A30.73,30.73,0,0,0,117.63,415H354.92A30.72,30.72,0,0,1,324.2,384.27Z"/><path class="cls-4" d="M330.6,238.33H314.73l2.94-12.15h12.82a9.12,9.12,0,0,0,0-18.23h-8.4l3.16-13a9.11,9.11,0,1,0-17.7-4.29l-14.21,58.62-17.93-59.12a9.1,9.1,0,0,0-17.43,0l-17.92,59.12-14.22-58.62a9.1,9.1,0,1,0-17.69,4.3l3.16,13h-8.39a9.12,9.12,0,0,0,0,18.23h12.81l3,12.15H202.92a9.11,9.11,0,1,0,0,18.22H223.1L230.24,286a9.09,9.09,0,0,0,8.59,7c4.59-.18,7.8-2.55,9-6.46l18.89-62.36,18.9,62.36a9.08,9.08,0,0,0,8.71,6.46h.25a9.09,9.09,0,0,0,8.59-7l7.16-29.49h20.28a9.11,9.11,0,0,0,0-18.22Z"/></svg>