<svg xmlns="http://www.w3.org/2000/svg" viewBox="0 0 500 499"><defs><style>.cls-1{isolation:isolate;}.cls-2{fill:#2ca4ee;}.cls-3{mix-blend-mode:multiply;}.cls-4{fill:#e3e3e3;}</style></defs><title>store</title><g class="cls-1"><g id="Layer_1" data-name="Layer 1"><path id="Shape" d="M408.34,266.17V228.12a32.35,32.35,0,0,0,25.88-31.7,58.25,58.25,0,0,0-.58-15.6L385.37,78.13A19.43,19.43,0,0,0,367.76,67H137.47a19.41,19.41,0,0,0-16.7,9.58C54.83,188.52,59.75,180,59.23,181.79a59.21,59.21,0,0,0-.32,14.63,32.35,32.35,0,0,0,25.88,31.7V377.6a38.84,38.84,0,0,0,38.83,38.83H258.08A106.71,106.71,0,1,0,408.34,266.17Zm-6.47-50.34a19.41,19.41,0,0,1-19.42-19.41V190h38.83v6.47A19.41,19.41,0,0,1,401.87,215.83ZM186.65,79.94,163.8,177h-37l40-97.06Zm33.64,0L214.6,177H177.07l22.84-97.06Zm72.93,0L316.06,177H278.53l-5.69-97.06Zm33.13,0,40,97.06h-37L306.49,79.94ZM265.59,177h-38l5.7-97.06H259.9ZM123.62,190h38.82v6.47a19.41,19.41,0,1,1-38.82,0Zm51.77,0h38.82v6.47a19.41,19.41,0,1,1-38.82,0Zm51.76,0H266v6.47a19.42,19.42,0,0,1-38.83,0Zm51.77,0h38.82v6.47a19.41,19.41,0,0,1-38.82,0Zm51.77,0h38.82v6.47a19.41,19.41,0,1,1-38.82,0Zm42.9-106.32L417.53,177H380.32l-40-97.06h27.43a6.48,6.48,0,0,1,5.83,3.69ZM131.9,83.11a6.49,6.49,0,0,1,5.57-3.17H152.8l-40,97.06H76.71ZM71.85,196.42V190h38.83v6.47a19.42,19.42,0,0,1-38.83,0ZM97.74,371.13v-143a32.37,32.37,0,0,0,19.41-12.29,32.36,32.36,0,0,0,51.77,0,32.35,32.35,0,0,0,51.76,0,32.36,32.36,0,0,0,51.77,0,32.36,32.36,0,0,0,51.77,0,32.35,32.35,0,0,0,51.76,0,32.4,32.4,0,0,0,19.41,12.49v29c-79.59-47.95-179.17,22.26-159.31,113.82m4,12.94a109.38,109.38,0,0,0,9.19,19.41H123.62a25.87,25.87,0,0,1-25-19.41m241.75,58.24a93.83,93.83,0,1,1,93.83-93.83A93.82,93.82,0,0,1,340.39,442.31Z"/><rect class="cls-2" x="286" y="312.75" width="74" height="14.25"/><rect class="cls-2" x="286" y="342.75" width="110" height="14.25"/><rect class="cls-2" x="286" y="372.75" width="110" height="14.25"/><g class="cls-3"><g class="cls-3"><path class="cls-4" d="M440,351.86a100.87,100.87,0,0,0-155.86-84.55,100.87,100.87,0,0,1,95.18,177.08A100.87,100.87,0,0,0,440,351.86Z"/></g></g></g></g></svg>