<svg id="Layer_1" data-name="Layer 1" xmlns="http://www.w3.org/2000/svg" viewBox="0 0 500 500"><defs><style>.cls-1{fill:#222;}.cls-2{fill:#1e9fe0;}.cls-3{fill:#333;}</style></defs><title>ic-sv-bkp-send</title><path class="cls-1" d="M227.8,412.06A166.59,166.59,0,1,1,394.27,245.6h13.14A179.47,179.47,0,1,0,297.72,411.08L292.6,399A166,166,0,0,1,227.8,412.06Z"/><path class="cls-2" d="M374.5,280v29.9H305.44v43.34H431.23Z"/><path class="cls-3" d="M269.88,170q10,10.75,10,31.51v22.23q0,20.78-10,31.52t-30,10.75h-12.7v64.24H200.26v-171h39.57Q259.86,159.27,269.88,170ZM227.13,241.6h12.7q6.6,0,9.9-3.67T253,225.47V199.82q0-8.79-3.29-12.45t-9.9-3.67h-12.7Z"/></svg>