<svg id="Layer_1" data-name="Layer 1" xmlns="http://www.w3.org/2000/svg" viewBox="0 0 500 500"><defs><style>.cls-1{fill:#333;}.cls-2{fill:#fff;stroke:#dd315a;stroke-miterlimit:10;stroke-width:8px;}.cls-3{fill:#222;}.cls-4{fill:#dd315a;}</style></defs><title>ic-sv-ico-on</title><path class="cls-1" d="M179.47,179.93V319.35H157.56V179.93Z"/><path class="cls-1" d="M258.93,285.89q0,16.94-8.36,26t-24.3,9.06q-15.93,0-24.3-9.06t-8.36-26v-72.5q0-16.92,8.36-26t24.3-9.06q15.93,0,24.3,9.06t8.36,26v13.55H238.22V212q0-13.74-11.35-13.74T215.52,212v75.28q0,13.55,11.35,13.55t11.35-13.55V267.37h20.71Z"/><path class="cls-1" d="M279.05,187.5q8.55-9.15,24.69-9.16t24.7,9.16q8.56,9.17,8.56,25.89v72.5q0,16.73-8.56,25.89t-24.7,9.16q-16.12,0-24.69-9.16t-8.57-25.89v-72.5Q270.48,196.67,279.05,187.5ZM303.74,301q11.36,0,11.36-13.75V212q0-13.74-11.36-13.74T292.39,212v75.28Q292.39,301,303.74,301Z"/><rect class="cls-2" x="308.61" y="271" width="152.15" height="117.22" rx="20.78" ry="20.78"/><path class="cls-3" d="M240.8,416.47A166.6,166.6,0,1,1,407.27,250h13.14A179.5,179.5,0,1,0,310.72,415.48l-5.12-12.09A165.8,165.8,0,0,1,240.8,416.47Z"/><path class="cls-4" d="M344,301.49q5.25-4.22,15.15-4.21t15.16,4.21q5.25,4.22,5.26,11.9v33.33q0,7.69-5.26,11.91t-15.16,4.21q-9.9,0-15.15-4.21t-5.26-11.91V313.39Q338.71,305.71,344,301.49Zm15.15,52.19q7,0,7-6.31V312.75q0-6.31-7-6.31t-7,6.31v34.62Q352.16,353.68,359.12,353.68Z"/><path class="cls-4" d="M400.2,362.11H388.1V298H405l13.82,38.37V298h12v64.1H416.94L400.2,315.68Z"/></svg>