<svg xmlns="http://www.w3.org/2000/svg" viewBox="0 0 500 500"><defs><style>.cls-1{isolation:isolate;}.cls-2{fill:#fff;}.cls-2,.cls-8{stroke:#222;stroke-width:14px;}.cls-2,.cls-5,.cls-6,.cls-7{stroke-linejoin:round;}.cls-3{fill:#e3e3e3;mix-blend-mode:multiply;}.cls-4{opacity:0.3;}.cls-5,.cls-6,.cls-7{fill:none;stroke:#000;stroke-width:10px;}.cls-6{stroke-dasharray:3.12 3.12;}.cls-7{stroke-dasharray:3.14 3.14;}.cls-8{fill:#f9f9f9;stroke-miterlimit:10;}.cls-9{fill:#625fdd;}</style></defs><title>cloud</title><g class="cls-1"><g id="Layer_1" data-name="Layer 1"><path class="cls-2" d="M377.88,168.29c-1.73,0-3.42.12-5.1.25A78.9,78.9,0,0,0,218.65,135a60.37,60.37,0,0,0-94.44,60.89,51,51,0,1,0-6.94,101.62H377.88a64.62,64.62,0,1,0,0-129.24Z"/><path class="cls-3" d="M377.88,168.29c-1.73,0-3.42.12-5.1.25a78.92,78.92,0,0,0-98.2-90.79,78.62,78.62,0,0,1,57.17,90.79c1.69-.13,3.38-.25,5.1-.25a64.62,64.62,0,1,1,0,129.24h41a64.62,64.62,0,1,0,0-129.24Z"/><g class="cls-4"><line class="cls-5" x1="129.07" y1="320.17" x2="129.07" y2="321.67"/><line class="cls-6" x1="129.06" y1="324.8" x2="128.94" y2="366.98"/><polyline class="cls-5" points="128.93 368.54 128.93 370.04 130.43 370.04"/><line class="cls-7" x1="133.57" y1="370.05" x2="194.79" y2="370.23"/><line class="cls-5" x1="196.36" y1="370.23" x2="197.86" y2="370.24"/></g><path class="cls-8" d="M426.16,320.42A105.58,105.58,0,1,0,320.58,426,105.58,105.58,0,0,0,426.16,320.42Z"/><path class="cls-9" d="M260.36,282.15q7.51-6,21.7-6t21.71,6q7.51,6,7.52,17.05v47.72q0,11-7.52,17.05t-21.71,6q-14.18,0-21.7-6t-7.53-17.05V299.2Q252.83,288.18,260.36,282.15Zm21.7,74.74q10,0,10-9.05V298.28q0-9-10-9t-10,9v49.56Q272.08,356.89,282.06,356.89Z"/><path class="cls-9" d="M340.88,369H323.55V277.17H347.7l19.78,54.94V277.17h17.16V369H364.86l-24-66.48Z"/></g></g></svg>