<svg xmlns="http://www.w3.org/2000/svg" viewBox="0 0 500 500"><defs><style>.cls-1{isolation:isolate;}.cls-2{fill:#fff;}.cls-2,.cls-8{stroke:#222;stroke-width:14px;}.cls-2,.cls-5,.cls-6,.cls-7{stroke-linejoin:round;}.cls-3{fill:#e3e3e3;mix-blend-mode:multiply;}.cls-4{opacity:0.3;}.cls-5,.cls-6,.cls-7{fill:none;stroke:#000;stroke-width:10px;}.cls-6{stroke-dasharray:3.12 3.12;}.cls-7{stroke-dasharray:3.14 3.14;}.cls-8{fill:#f9f9f9;stroke-miterlimit:10;}.cls-9{fill:#625fdd;}</style></defs><title>cloud_edit</title><g class="cls-1"><g id="Layer_1" data-name="Layer 1"><path class="cls-2" d="M371.88,165.29c-1.73,0-3.42.12-5.1.25A78.9,78.9,0,0,0,212.65,132a60.37,60.37,0,0,0-94.44,60.89,51,51,0,1,0-6.94,101.62H371.88a64.62,64.62,0,1,0,0-129.24Z"/><path class="cls-3" d="M371.88,165.29c-1.73,0-3.42.12-5.1.25a78.92,78.92,0,0,0-98.2-90.79,78.62,78.62,0,0,1,57.17,90.79c1.69-.13,3.38-.25,5.1-.25a64.62,64.62,0,1,1,0,129.24h41a64.62,64.62,0,1,0,0-129.24Z"/><g class="cls-4"><line class="cls-5" x1="123.07" y1="317.17" x2="123.07" y2="318.67"/><line class="cls-6" x1="123.06" y1="321.8" x2="122.94" y2="363.98"/><polyline class="cls-5" points="122.93 365.54 122.93 367.04 124.43 367.04"/><line class="cls-7" x1="127.57" y1="367.05" x2="188.79" y2="367.23"/><line class="cls-5" x1="190.36" y1="367.23" x2="191.86" y2="367.24"/></g><path class="cls-8" d="M420.16,317.42A105.58,105.58,0,1,0,314.58,423,105.58,105.58,0,0,0,420.16,317.42Z"/><path class="cls-9" d="M293.82,326.08H276.43A16.42,16.42,0,0,0,260,342.5v26c0,6.81,24,12.34,53.75,12.49,29.8-.15,53.74-5.68,53.74-12.49v-26a16.42,16.42,0,0,0-16.42-16.42H333.68c-3.92,0-5.27-3.32-4.52-6.74.88-4,4.56-6.48,7.16-9.39,6.29-7.05,11.09-15.44,11.09-25.14a33.59,33.59,0,0,0-33.59-33.59h-.14a33.6,33.6,0,0,0-33.6,33.59c0,9.7,4.81,18.08,11.09,25.14,2.6,2.91,6.27,5.38,7.16,9.39C299.07,322.76,297.73,326.08,293.82,326.08Z"/></g></g></svg>