<svg id="Layer_1" data-name="Layer 1" xmlns="http://www.w3.org/2000/svg" viewBox="0 0 500 500"><defs><style>.cls-1{fill:#333;}.cls-2{fill:#fff;stroke:#dd315a;stroke-miterlimit:10;stroke-width:8px;}.cls-3{fill:#222;}.cls-4{fill:#dd315a;}</style></defs><title>ic-sv-ieo-on</title><path class="cls-1" d="M180.47,186.93V326.35H158.56V186.93Z"/><path class="cls-1" d="M248.38,245.69V265.6H218.31v40.83h37.84v19.92H196.4V186.93h59.75v19.92H218.31v38.84Z"/><path class="cls-1" d="M276.46,194.5q8.57-9.15,24.7-9.16t24.7,9.16q8.55,9.17,8.56,25.89v72.5q0,16.73-8.56,25.89t-24.7,9.16q-16.12,0-24.7-9.16t-8.56-25.89v-72.5Q267.9,203.67,276.46,194.5ZM301.16,308q11.35,0,11.35-13.75V219q0-13.74-11.35-13.74T289.81,219v75.28Q289.81,308,301.16,308Z"/><rect class="cls-2" x="309.68" y="279.78" width="152.15" height="117.22" rx="20.78" ry="20.78"/><path class="cls-3" d="M241.8,423.47A166.6,166.6,0,1,1,408.27,257h13.14A179.5,179.5,0,1,0,311.72,422.48l-5.12-12.09A165.8,165.8,0,0,1,241.8,423.47Z"/><path class="cls-4" d="M345,310.27q5.26-4.2,15.16-4.21t15.16,4.21q5.25,4.22,5.26,11.91v33.33q0,7.69-5.26,11.9t-15.16,4.21q-9.9,0-15.16-4.21t-5.25-11.9V322.18Q339.79,314.49,345,310.27Zm15.16,52.2q7,0,7-6.32V321.54q0-6.33-7-6.32t-7,6.32v34.61Q353.23,362.47,360.2,362.47Z"/><path class="cls-4" d="M401.27,370.89h-12.1v-64.1H406l13.82,38.37V306.79h12v64.1H418l-16.75-46.42Z"/></svg>