<svg id="Layer_1" data-name="Layer 1" xmlns="http://www.w3.org/2000/svg" viewBox="0 0 500 500"><defs><style>.cls-1{fill:#222;}.cls-2{fill:#1e9fe0;}.cls-3{fill:#333;}</style></defs><title>bkp-withdraw</title><path class="cls-1" d="M237.8,416.06A166.59,166.59,0,1,1,404.27,249.6h13.14A179.47,179.47,0,1,0,307.72,415.08L302.6,403A166,166,0,0,1,237.8,416.06Z"/><path class="cls-2" d="M415.24,340.84H385.11v-69.6H341.43V398Z"/><path class="cls-3" d="M279.88,174q10,10.75,10,31.51v22.23q0,20.78-10,31.52t-30,10.75h-12.7v64.24H210.26v-171h39.57Q269.86,163.27,279.88,174ZM237.13,245.6h12.7q6.6,0,9.9-3.67T263,229.47V203.82q0-8.79-3.29-12.45t-9.9-3.67h-12.7Z"/></svg>