<svg id="Layer_1" data-name="Layer 1" xmlns="http://www.w3.org/2000/svg" viewBox="0 0 500 500"><defs><style>.cls-1{fill:#625fdd;}.cls-2{fill:#222;}.cls-3{fill:#333;}</style></defs><title>coin-send</title><path class="cls-1" d="M379.27,280.21v29.9H310.21v43.34H436Z"/><path class="cls-2" d="M223.8,412.06A166.59,166.59,0,1,1,390.27,245.6h13.14A179.47,179.47,0,1,0,293.72,411.08L288.6,399A166,166,0,0,1,223.8,412.06Zm120.11-80.24h0Z"/><path class="cls-3" d="M262.36,172.13q9.57,9.69,9.57,29.79v6.13q0,13.24-4.29,21.83a27.31,27.31,0,0,1-13.12,12.75q20.1,7.86,20.11,36.79v14q0,19.88-10.43,30.29T233.67,334.1H191.25V162.44H232Q252.8,162.44,262.36,172.13Zm-44.14,60.2h10.55q8.08,0,12.14-4.17t4-14v-9.56q0-9.31-3.31-13.49T231.22,187h-13Zm0,77.25h15.45q7.11,0,10.55-3.8t3.43-13.12v-15q0-11.77-4.05-16.31t-13.36-4.54h-12Z"/><rect class="cls-3" x="196.87" y="322.13" width="35" height="18.75" transform="translate(-117.13 545.87) rotate(-90)"/><rect class="cls-3" x="225.12" y="322.13" width="35" height="18.75" transform="translate(-88.88 574.12) rotate(-90)"/><rect class="cls-3" x="196.87" y="153.13" width="35" height="18.75" transform="translate(51.87 376.87) rotate(-90)"/><rect class="cls-3" x="225.12" y="153.13" width="35" height="18.75" transform="translate(80.12 405.12) rotate(-90)"/></svg>