<svg id="Layer_1" data-name="Layer 1" xmlns="http://www.w3.org/2000/svg" viewBox="0 0 500 500"><defs><style>.cls-1{fill:#222;}.cls-2{fill:#625fdd;}.cls-3{fill:#333;}</style></defs><title>ic-sv-coin-charge</title><path class="cls-1" d="M229.8,414.06A166.59,166.59,0,1,1,396.27,247.6h13.14A179.47,179.47,0,1,0,299.72,413.08L294.6,401A166,166,0,0,1,229.8,414.06Zm120.11-80.24h0Z"/><rect class="cls-2" x="311" y="312.75" width="110" height="22.5"/><rect class="cls-2" x="311" y="312.75" width="110" height="22.5" transform="translate(690 -42) rotate(90)"/><path class="cls-3" d="M266.69,289.73q0,20.77-10.26,31.88t-29.81,11.12q-19.55,0-29.8-11.12t-10.26-31.88V200.81q0-20.76,10.26-31.88t29.8-11.11q19.55,0,29.81,11.11t10.26,31.88v16.61H241.28V199.1q0-16.84-13.92-16.85T213.43,199.1v92.34q0,16.62,13.93,16.61t13.92-16.61V267h25.41Z"/></svg>