<svg xmlns="http://www.w3.org/2000/svg" viewBox="0 0 500 500"><defs><style>.cls-1{isolation:isolate;}.cls-2{fill:#fff;}.cls-2,.cls-8{stroke:#222;stroke-width:14px;}.cls-2,.cls-5,.cls-6,.cls-7{stroke-linejoin:round;}.cls-3{fill:#e3e3e3;mix-blend-mode:multiply;}.cls-4{opacity:0.3;}.cls-5,.cls-6,.cls-7{fill:none;stroke:#000;stroke-width:10px;}.cls-6{stroke-dasharray:3.12 3.12;}.cls-7{stroke-dasharray:3.14 3.14;}.cls-8{fill:#f9f9f9;stroke-miterlimit:10;}.cls-9{fill:#625fdd;}</style></defs><title>cloud-guide</title><g class="cls-1"><g id="Layer_1" data-name="Layer 1"><path class="cls-2" d="M372.88,159.29c-1.73,0-3.42.12-5.1.25A78.9,78.9,0,0,0,213.65,126a60.37,60.37,0,0,0-94.44,60.89,51,51,0,1,0-6.94,101.62H372.88a64.62,64.62,0,1,0,0-129.24Z"/><path class="cls-3" d="M372.88,159.29c-1.73,0-3.42.12-5.1.25a78.92,78.92,0,0,0-98.2-90.79,78.62,78.62,0,0,1,57.17,90.79c1.69-.13,3.38-.25,5.1-.25a64.62,64.62,0,1,1,0,129.24h41a64.62,64.62,0,1,0,0-129.24Z"/><g class="cls-4"><line class="cls-5" x1="124.07" y1="311.17" x2="124.07" y2="312.67"/><line class="cls-6" x1="124.06" y1="315.8" x2="123.94" y2="357.98"/><polyline class="cls-5" points="123.93 359.54 123.93 361.04 125.43 361.04"/><line class="cls-7" x1="128.57" y1="361.05" x2="189.79" y2="361.23"/><line class="cls-5" x1="191.36" y1="361.23" x2="192.86" y2="361.24"/></g><path class="cls-8" d="M421.16,311.42A105.58,105.58,0,1,0,315.58,417,105.58,105.58,0,0,0,421.16,311.42Z"/><path class="cls-9" d="M278.16,290.37a27.78,27.78,0,0,1,4.68-14.79,36.13,36.13,0,0,1,13.68-12.41,43,43,0,0,1,21-4.92,44.77,44.77,0,0,1,19.67,4.11,31.9,31.9,0,0,1,13.18,11.18A27.45,27.45,0,0,1,355,288.91a23.73,23.73,0,0,1-2.65,11.45,35.12,35.12,0,0,1-6.3,8.49q-3.66,3.57-13.1,12a51.29,51.29,0,0,0-4.19,4.19,17.26,17.26,0,0,0-2.35,3.3,16.27,16.27,0,0,0-1.19,3q-.42,1.5-1.27,5.26-1.45,8-9.14,8a9.34,9.34,0,0,1-6.72-2.61q-2.73-2.61-2.73-7.76a27.27,27.27,0,0,1,7.3-19.48,121.61,121.61,0,0,1,8.91-8.49q4.92-4.3,7.11-6.5a21.92,21.92,0,0,0,3.69-4.88,11.76,11.76,0,0,0,1.5-5.84,13.61,13.61,0,0,0-4.57-10.37,16.71,16.71,0,0,0-11.8-4.23q-8.46,0-12.45,4.27t-6.76,12.56q-2.61,8.68-9.91,8.69a9.79,9.79,0,0,1-7.27-3A9.27,9.27,0,0,1,278.16,290.37Zm37.5,84.22a12.11,12.11,0,0,1-8.19-3q-3.5-3-3.49-8.5a10.91,10.91,0,0,1,3.38-8.14,11.42,11.42,0,0,1,8.3-3.3,11.29,11.29,0,0,1,11.45,11.44,10.76,10.76,0,0,1-3.46,8.46A11.67,11.67,0,0,1,315.66,374.59Z"/></g></g></svg>