<svg id="Layer_1" data-name="Layer 1" xmlns="http://www.w3.org/2000/svg" viewBox="0 0 500 500"><defs><style>.cls-1{fill:#3ab3ef;opacity:0.5;}.cls-2{fill:#222;}.cls-3{fill:none;stroke:#222;stroke-miterlimit:10;stroke-width:13px;}.cls-4{fill:#333;}</style></defs><title>ic-sv-card</title><path class="cls-1" d="M402.27,238.71l-292.91-1.43a12.15,12.15,0,0,1-12.25-12l.12-25c0-6.62-20.1-12.08,12.37-11.92l309.25,1.52c6.8,0-4.06,5.34-4.09,11.95l-.13,25.05A12.14,12.14,0,0,1,402.27,238.71Z"/><path class="cls-2" d="M418,189.17H98A6.92,6.92,0,0,0,91,196v41.25a6.92,6.92,0,0,0,7,6.88H418a6.92,6.92,0,0,0,7-6.88V196A6.92,6.92,0,0,0,418,189.17Zm-2,41.25H100.92v-27.5H416.08v27.5Z"/><rect class="cls-3" x="95.49" y="142.5" width="323.98" height="228" rx="34.32" ry="34.32"/><path class="cls-4" d="M373.6,296H349.06a13.39,13.39,0,0,0-13.39,13.4v24.54a13.39,13.39,0,0,0,13.39,13.39H373.6A13.4,13.4,0,0,0,387,333.94V309.4A13.4,13.4,0,0,0,373.6,296Zm.57,32.08a6.42,6.42,0,0,1-6.42,6.42H354.92a6.41,6.41,0,0,1-6.42-6.42V315.25c0-3.54,2.87-7.42,6.42-7.42h12.83c3.54,0,6.42,3.88,6.42,7.42Z"/></svg>