<svg id="Layer_1" data-name="Layer 1" xmlns="http://www.w3.org/2000/svg" viewBox="0 0 500 500"><defs><style>.cls-1{fill:#8885e5;opacity:0.5;}.cls-2{fill:none;}.cls-2,.cls-3{stroke:#222;stroke-linejoin:round;stroke-width:15px;}.cls-3{fill:#e3e3e3;}.cls-4{fill:#333;}</style></defs><title>bkc_history</title><path class="cls-1" d="M370.09,422H161.7c-4.84,0-8.76-7.22-8.76-16.13V372.13c0-8.91-6.76-16.13-1.92-16.13H378.85c4.84,0,0,7.22,0,16.13v33.74C378.85,414.78,374.93,422,370.09,422Z"/><path class="cls-2" d="M149.36,118.05V395.27H325.2A30.73,30.73,0,0,0,356.79,426c16.73-.46,29.86-14.61,29.86-31.36V117.42a22,22,0,0,0-22-22H172A22.65,22.65,0,0,0,149.36,118.05Z"/><path class="cls-3" d="M325.2,395.27H87.9A30.73,30.73,0,0,0,118.63,426H355.92A30.72,30.72,0,0,1,325.2,395.27Z"/><path class="cls-4" d="M296.69,279.23q0,16.8-8.3,25.78t-24.1,9q-15.81,0-24.11-9t-8.29-25.78V207.32q0-16.8,8.29-25.79t24.11-9q15.79,0,24.1,9t8.3,25.79v13.43H276.14V205.93q0-13.63-11.26-13.63t-11.26,13.63v74.68q0,13.44,11.26,13.44t11.26-13.44V260.86h20.55Z"/></svg>