<svg id="Layer_1" data-name="Layer 1" xmlns="http://www.w3.org/2000/svg" viewBox="0 0 500 500"><defs><style>.cls-1{fill:#3ab3ef;opacity:0.5;}.cls-2{fill:#625fdd;}</style></defs><title>travel</title><path class="cls-1" d="M276,384s5-53,40-67c0,0,32-38,31-55s24-29,24-29l3,17S385,360,276,384Z"/><path class="cls-1" d="M111,243s8-123,143-118c0,0,33,27,17,41s-30,39-30,39l-32,31s-20,2-20,17,26,32,33,32,24,11,19,16-35,4-39,4-48-23-48-23l-32-24s-14-4-15-3S111,243,111,243Z"/><path class="cls-2" d="M132.83,389.42a3,3,0,0,0-.39-.32c-4-3.32-8-6.88-11.68-10.56a6,6,0,1,0-8.44,8.48,153,153,0,0,0,12.48,11.32,6,6,0,1,0,8-8.92Z"/><path class="cls-2" d="M70,211.53a6,6,0,0,0-7.65,3.69,6.37,6.37,0,0,0-.31,1.44c-1.2,5.48-2.12,11-2.8,16.6A6,6,0,0,0,64.36,240h.76a6,6,0,0,0,6-5.28c.64-5.2,1.52-10.44,2.64-15.52A6,6,0,0,0,70,211.53Z"/><path class="cls-2" d="M103,357.62c-3.08-4.24-6-8.64-8.68-13.12a6,6,0,0,0-8.22-2.09h0A6,6,0,0,0,84,350.64v0c2.88,4.8,6,9.52,9.32,14a6,6,0,0,0,9.68-7.08Z"/><path class="cls-2" d="M82.08,319.78c-1.92-4.84-3.68-9.84-5.16-14.88a6,6,0,0,0-7.43-4.1l-.17.06a6,6,0,0,0-4,7.44c1.6,5.36,3.44,10.72,5.52,16a6.06,6.06,0,1,0,11.24-4.52Z"/><path class="cls-2" d="M85.66,170.4a6,6,0,0,0-8.06,2.66c-2.52,5-4.84,10.16-6.88,15.4a6,6,0,0,0,11.15,4.39v0a144.27,144.27,0,0,1,6.44-14.36A6,6,0,0,0,85.66,170.4Z"/><path class="cls-2" d="M71.29,278h0c-.64-5.2-1.08-10.48-1.28-15.68a6,6,0,0,0-12,.44,131.5,131.5,0,0,0,1.36,16.8,6,6,0,0,0,5.8,5.16h.92A6,6,0,0,0,71.29,278Z"/><path class="cls-2" d="M230.46,77.88a6,6,0,0,0-6.58-5.42c-5.56.56-11.16,1.36-16.68,2.44a6,6,0,0,0,1.12,12l0-.16h1.16c5.16-1,10.4-1.76,15.6-2.28A6,6,0,0,0,230.46,77.88Z"/><path class="cls-2" d="M111.72,134.1a6,6,0,0,0-8.52.52c-3.68,4.2-7.2,8.64-10.48,13.2a6,6,0,0,0,4.84,9.52v.08a6,6,0,0,0,4.88-2.48c3.08-4.24,6.36-8.4,9.8-12.32A6,6,0,0,0,111.72,134.1Z"/><path class="cls-2" d="M270,73.46c-5.52-.84-11.16-1.44-16.76-1.76a6,6,0,1,0-.72,12c5.28.4,10.52,1,15.68,1.76h.92a6,6,0,0,0,.88-12Z"/><path class="cls-2" d="M145.8,105.51a6,6,0,0,0-8.08-1.49c-4.6,3.16-9.12,6.6-13.44,10.16a6,6,0,0,0,7.68,9.24c4-3.36,8.24-6.56,12.56-9.52A6,6,0,0,0,145.8,105.51Z"/><path class="cls-2" d="M165.92,100.66h0Z"/><path class="cls-2" d="M187.08,86.6a6,6,0,0,0-7.37-4.2,5.85,5.85,0,0,0-.83.3,149.9,149.9,0,0,0-15.52,6.52,6,6,0,0,0,2.5,11.43,5.85,5.85,0,0,0,2.5-.59c4.72-2.24,9.6-4.28,14.52-6.08A6,6,0,0,0,187.08,86.6Z"/><path class="cls-2" d="M259.62,433.68a6,6,0,0,0-6.38-5.62,148.06,148.06,0,0,1-15.76.36,6,6,0,0,0-.32,12h5.08c4,0,8,0,11.76-.36A6,6,0,0,0,259.62,433.68Z"/><path class="cls-2" d="M416.66,294.68a6,6,0,0,0-7.3,4.34c-1.28,5.08-2.84,10.12-4.6,15A6,6,0,0,0,416.08,318h0c1.88-5.28,3.52-10.68,4.92-16A6,6,0,0,0,416.66,294.68Z"/><path class="cls-2" d="M424.32,226c-.92-5.52-2.08-11.08-3.48-16.48a6,6,0,0,0-11.6,3c1.32,5,2.4,10.24,3.28,15.4a6,6,0,0,0,5.84,4.92h1A6,6,0,0,0,424.32,226Z"/><path d="M449.83,157.11a5.9,5.9,0,0,0-1.15-1.65l-10.6-11a5.78,5.78,0,0,0-5.8-1.44l-19.12,5.8L390.76,125,441,97a5.82,5.82,0,0,0,1.72-9.4L428.64,73.5a5.83,5.83,0,0,0-5.8-1.36L359.12,91.42,337.68,68.66a19.39,19.39,0,0,0-22.08-5.24h-.36A23.6,23.6,0,0,0,302.4,76.26,22,22,0,0,0,301.12,81l-2.44-.84A6,6,0,0,0,295,91.58c3.08,1,6.16,2.12,9.24,3.28a23.54,23.54,0,0,0,3.24,4l22.6,21.44-6.48,21.4a141,141,0,1,0,29.8,28.72l10.24-18.48,23.76,22.4-5.72,18.92a5.83,5.83,0,0,0,1.4,5.92s11.72,11.6,12,12a5.81,5.81,0,0,0,7.93-2.11.83.83,0,0,0,.07-.13l15.64-28.68L447,164.86A5.85,5.85,0,0,0,449.83,157.11ZM151.16,165a128.4,128.4,0,0,1,90.92-37.6q4,0,8,.24c22.68,20.92,16,40,.8,57.2a281.71,281.71,0,0,1-28.8,26.56c-14.76,12.56-28.52,24.28-33.72,36-6.16,13.92-1.64,26.52,23.24,37.52,12.44,5.52,19.2,9.8,21.84,13a.53.53,0,0,0,.12.1l-.28.1a49.83,49.83,0,0,1-18.88,3.24c-30.16,1.28-51.64-18-68.32-32.92-12-10.68-22-19.56-32.32-19.64A128.46,128.46,0,0,1,151.16,165Zm220,91.12h0a129,129,0,0,1-88.84,122.52,42,42,0,0,1,4.92-27.24,99.08,99.08,0,0,1,24-26.4c36.92-30.8,39-48,40.6-61.24,1-8.36,1.76-14.6,18.28-23.68A128.28,128.28,0,0,1,371.12,256.14Zm-7.44-43.28a126.39,126.39,0,0,1,4.4,15.4c-25.16,12.8-26.28,21.92-27.8,34.36-1.36,11.2-3.12,25.84-36.48,53.68A109.41,109.41,0,0,0,277,346a53.1,53.1,0,0,0-6,35.72A128.88,128.88,0,0,1,113.48,260.66c6.36,0,14.6,7.56,24.72,16.56,18.32,16.36,41.76,37.24,76.68,36a60,60,0,0,0,24-4.56,12,12,0,0,0,6.64-7.52,11.41,11.41,0,0,0-2.88-10.44c-3.76-4.6-12-10-26.16-16.36-16.92-7.48-20.6-14.76-17.28-22.2,4-9.36,16.88-20,30.56-32a291.41,291.41,0,0,0,30-28c16.72-19,25.32-39.8,8.32-62.52a127.87,127.87,0,0,1,52,23.64l-9.2,30.36a5.84,5.84,0,0,0,1.4,5.92s14.92,14.8,15.4,15.08a5.81,5.81,0,0,0,7.93-2.11l.07-.13,11.64-21A128.36,128.36,0,0,1,363.68,212.86Zm53.64-44.68-5.16,2.56a5.76,5.76,0,0,0-2.64,2.68l-2.56,5.2-10,18-2.92-3.2,5.8-19.16A5.78,5.78,0,0,0,398,168.1l-31.56-29.72a5.79,5.79,0,0,0-8.2.07l-.16.17c-.4.44-28.8,51.6-28.8,51.6l-6.2-6.2,19.36-63.8a5.79,5.79,0,0,0-1.88-6.2L315.44,90.38a8.33,8.33,0,0,1-2.28-9.6,12.54,12.54,0,0,1,6.52-6.48h.2a8.31,8.31,0,0,1,9.36,2.4l24,25.36a5.84,5.84,0,0,0,5.92,1.6l64-19.32,6.2,6.2-50.8,27.92a5.79,5.79,0,0,0-2.31,7.86c0,.05.05.09.07.14.24.44,30.84,33,30.84,33a5.83,5.83,0,0,0,5.92,1.56l19.24-5.8,3,3Z"/><path class="cls-2" d="M401.87,336.84l-.27-.14a6,6,0,0,0-8,2.36c-2.52,4.6-5.28,9.12-8.24,13.44a6,6,0,1,0,9.84,6.92c3.12-4.64,6.08-9.48,8.8-14.36A6,6,0,0,0,401.87,336.84Z"/><path class="cls-2" d="M420.84,249.26a6,6,0,0,0-6.08,5.91v.93c0,5.24-.24,10.52-.72,15.76a6,6,0,0,0,5.44,6.51H420a6,6,0,0,0,6-5.56c.52-5.56.76-11.2.76-16.8v-.8A6,6,0,0,0,420.84,249.26Z"/><path class="cls-2" d="M210.16,425.42a123.94,123.94,0,0,1-15.36-3.52,6,6,0,0,0-4,11.32c.23.08.47.14.7.2,5.36,1.52,10.88,2.84,16.4,4H209a6,6,0,0,0,1.12-12Z"/><path class="cls-2" d="M303,423.59a6,6,0,0,0-7.28-3.69v.16a119.21,119.21,0,0,1-15.16,4,6,6,0,1,0,2.64,11.72c5.44-1.24,10.92-2.76,16.24-4.48A6,6,0,0,0,303,423.59Z"/><path class="cls-2" d="M169,412.34c-4.76-2.36-9.44-4.92-14-7.48A6,6,0,0,0,149,415.22c4.84,2.84,9.84,5.48,14.92,8A6,6,0,0,0,169,412.34Z"/><path class="cls-2" d="M376.38,373.74A6,6,0,0,0,368,374h0a145.84,145.84,0,0,1-11.28,11,6,6,0,1,0,8,9c4-3.72,8.24-7.68,12-11.76A6,6,0,0,0,376.38,373.74Z"/><path class="cls-2" d="M343.27,403.67a6,6,0,0,0-8.22-2.07,2.29,2.29,0,0,0-.29.18v-.16c-4.4,2.8-9,5.44-13.64,8a6,6,0,0,0,5.48,10.68c5-2.56,9.88-5.4,14.6-8.4A6,6,0,0,0,343.27,403.67Z"/></svg>