<svg xmlns="http://www.w3.org/2000/svg" viewBox="0 0 500 500"><defs><style>.cls-1{isolation:isolate;}.cls-2{fill:#3ab3ef;opacity:0.5;}.cls-3{fill:#222;}.cls-4{fill:none;stroke-width:13px;}.cls-4,.cls-6{stroke:#222;stroke-miterlimit:10;}.cls-5{fill:#333;}.cls-6{fill:#f9f9f9;stroke-width:14px;}.cls-7{fill:#2ca4ee;}.cls-8{mix-blend-mode:multiply;}.cls-9{fill:#e3e3e3;}</style></defs><title>pay-guide</title><g class="cls-1"><g id="Layer_1" data-name="Layer 1"><path class="cls-2" d="M418,228.93,83.94,227.3a13.86,13.86,0,0,1-14-13.73L70.11,185c0-7.54-22.93-13.77,14.11-13.59l352.72,1.73c7.76,0-4.63,6.09-4.66,13.64l-.14,28.56A13.86,13.86,0,0,1,418,228.93Z"/><path class="cls-3" d="M436,172.42H70.94A7.9,7.9,0,0,0,63,180.26v47.05a7.9,7.9,0,0,0,7.94,7.85H436a7.9,7.9,0,0,0,7.94-7.85V180.26A7.9,7.9,0,0,0,436,172.42Zm-2.23,47.05H74.31V188.11H433.79v31.36Z"/><rect class="cls-4" x="68.13" y="119.19" width="369.53" height="260.06" rx="34.32" ry="34.32"/><path class="cls-5" d="M359.6,300H335.06a13.39,13.39,0,0,0-13.39,13.4v24.54a13.39,13.39,0,0,0,13.39,13.39H359.6A13.4,13.4,0,0,0,373,337.94V313.4A13.4,13.4,0,0,0,359.6,300Zm.57,32.08a6.42,6.42,0,0,1-6.42,6.42H340.92a6.41,6.41,0,0,1-6.42-6.42V319.25c0-3.54,2.87-7.42,6.42-7.42h12.83c3.54,0,6.42,3.88,6.42,7.42Z"/><path class="cls-3" d="M286.7,306.7H262v16.47h33a8.3,8.3,0,0,0,8.28-8.28v-33H286.79V306.7Z"/><path class="cls-6" d="M443.16,323.42A105.58,105.58,0,1,0,337.58,429,105.58,105.58,0,0,0,443.16,323.42Z"/><path class="cls-7" d="M300.16,302.37a27.78,27.78,0,0,1,4.68-14.79,36.13,36.13,0,0,1,13.68-12.41,43,43,0,0,1,21-4.92,44.77,44.77,0,0,1,19.67,4.11,31.9,31.9,0,0,1,13.18,11.18A27.45,27.45,0,0,1,377,300.91a23.73,23.73,0,0,1-2.65,11.45,35.12,35.12,0,0,1-6.3,8.49q-3.66,3.57-13.1,12a51.29,51.29,0,0,0-4.19,4.19,17.26,17.26,0,0,0-2.35,3.3,16.27,16.27,0,0,0-1.19,3q-.42,1.5-1.27,5.26-1.45,8-9.14,8a9.34,9.34,0,0,1-6.72-2.61q-2.73-2.61-2.73-7.76a27.27,27.27,0,0,1,7.3-19.48,121.61,121.61,0,0,1,8.91-8.49q4.92-4.3,7.11-6.5a21.92,21.92,0,0,0,3.69-4.88,11.76,11.76,0,0,0,1.5-5.84,13.61,13.61,0,0,0-4.57-10.37,16.71,16.71,0,0,0-11.8-4.23q-8.46,0-12.45,4.27t-6.76,12.56q-2.61,8.68-9.91,8.69a9.79,9.79,0,0,1-7.27-3A9.27,9.27,0,0,1,300.16,302.37Zm37.5,84.22a12.11,12.11,0,0,1-8.19-3q-3.5-3-3.49-8.5a10.91,10.91,0,0,1,3.38-8.14,11.42,11.42,0,0,1,8.3-3.3,11.29,11.29,0,0,1,11.45,11.44,10.76,10.76,0,0,1-3.46,8.46A11.67,11.67,0,0,1,337.66,386.59Z"/><g class="cls-8"><g class="cls-8"><path class="cls-9" d="M441,322.86a100.87,100.87,0,0,0-155.86-84.55,100.87,100.87,0,0,1,95.18,177.08A100.87,100.87,0,0,0,441,322.86Z"/></g></g></g></g></svg>