<svg id="Layer_1" data-name="Layer 1" xmlns="http://www.w3.org/2000/svg" viewBox="0 0 500 500"><defs><style>.cls-1{fill:#3ab3ef;opacity:0.5;}.cls-2{fill:none;}.cls-2,.cls-3{stroke:#222;stroke-miterlimit:10;stroke-width:13px;}.cls-3{fill:#fff;}.cls-4{fill:#333;}</style></defs><title>ic-sv-wallet</title><path class="cls-1" d="M406.31,396H80.69A13.69,13.69,0,0,1,67,382.31V353.69C67,346.13,56.44,340,64,340H420c7.56,0,0,6.13,0,13.69v28.62A13.69,13.69,0,0,1,406.31,396Z"/><rect class="cls-2" x="63.5" y="128.73" width="357" height="272.55" rx="34.32" ry="34.32"/><rect class="cls-3" x="310.5" y="210.5" width="153" height="84" rx="20.6" ry="20.6"/><path class="cls-4" d="M370,253.5a16.23,16.23,0,1,1-16.23-16.23A16.23,16.23,0,0,1,370,253.5Z"/></svg>