<svg xmlns="http://www.w3.org/2000/svg" viewBox="0 0 500 500"><defs><style>.cls-1{isolation:isolate;}.cls-2{fill:none;stroke:#222;stroke-miterlimit:10;stroke-width:13px;}.cls-3{fill:#2ca4ee;}.cls-4{fill:#e3e3e3;mix-blend-mode:multiply;}</style></defs><title>medical</title><g class="cls-1"><g id="Layer_1" data-name="Layer 1"><rect class="cls-2" x="70.53" y="128.19" width="369.53" height="260.06" rx="34.32" ry="34.32"/><rect class="cls-2" x="191.3" y="83" width="128" height="44.5" rx="12" ry="12"/><path d="M338.63,301.58A95.39,95.39,0,0,0,194.29,185.69a6.42,6.42,0,0,0,7.77,10.21A81.78,81.78,0,0,1,252,179.09,82.59,82.59,0,0,1,327,296.2a6.42,6.42,0,0,0,11.65,5.38Z"/><path d="M291.35,348.53a6.42,6.42,0,1,0-5.3-11.69A82.56,82.56,0,0,1,185.77,212.36a6.42,6.42,0,0,0-10.29-7.67A95.4,95.4,0,0,0,291.35,348.53Z"/><path class="cls-3" d="M296.35,241.53h-21v-21a13.28,13.28,0,0,0-13.26-13.26H248.45a13.27,13.27,0,0,0-13.25,13.26v21h-21A13.28,13.28,0,0,0,201,254.79v13.68a13.28,13.28,0,0,0,13.26,13.26h21v21a13.26,13.26,0,0,0,13.25,13.25h13.69a13.27,13.27,0,0,0,13.26-13.25v-21h21a13.27,13.27,0,0,0,13.26-13.26V254.79A13.28,13.28,0,0,0,296.35,241.53Zm.43,26.94a.43.43,0,0,1-.43.43H269a6.41,6.41,0,0,0-6.41,6.42v27.37a.42.42,0,0,1-.43.42H248.45a.42.42,0,0,1-.42-.42V275.32a6.42,6.42,0,0,0-6.42-6.42H214.24a.43.43,0,0,1-.43-.43V254.79a.43.43,0,0,1,.43-.43h27.37a6.42,6.42,0,0,0,6.42-6.42V220.57a.43.43,0,0,1,.42-.43h13.69a.43.43,0,0,1,.43.43v27.37a6.41,6.41,0,0,0,6.41,6.42h27.37a.43.43,0,0,1,.43.43v13.68Z"/><path class="cls-4" d="M422,125.19c9.9,0,18,15.45,18,34.32V350.93c0,18.88-8.1,34.32-18,34.32"/><path class="cls-4" d="M89,128.19c-9.9,0-18,15.45-18,34.32V353.93c0,18.88,8.1,34.32,18,34.32"/></g></g></svg>