<svg id="Layer_1" data-name="Layer 1" xmlns="http://www.w3.org/2000/svg" viewBox="0 0 500 500"><defs><style>.cls-1{fill:#222;}.cls-2{fill:#2ca4ee;}.cls-3{fill:#333;}</style></defs><title>ic-sv-bkp-charge</title><path class="cls-1" d="M228.8,410.06A166.59,166.59,0,1,1,395.27,243.6h13.14A179.47,179.47,0,1,0,298.72,409.08L293.6,397A166,166,0,0,1,228.8,410.06Zm120.11-80.24h0Z"/><rect class="cls-2" x="304" y="312.75" width="110" height="22.5"/><rect class="cls-2" x="304" y="312.75" width="110" height="22.5" transform="translate(683 -35) rotate(90)"/><path class="cls-3" d="M269.88,174q10,10.75,10,31.51v22.23q0,20.78-10,31.52t-30,10.75h-12.7v64.24H200.26v-171h39.57Q259.86,163.27,269.88,174ZM227.13,245.6h12.7q6.6,0,9.9-3.67T253,229.47V203.82q0-8.79-3.29-12.45t-9.9-3.67h-12.7Z"/></svg>