<svg id="Layer_1" data-name="Layer 1" xmlns="http://www.w3.org/2000/svg" viewBox="0 0 500 500"><defs><style>.cls-1{fill:#625fdd;}.cls-2{fill:none;stroke:#222;stroke-miterlimit:10;stroke-width:13px;}</style></defs><title>ic-sv-qr-code</title><path d="M140.09,158v64a10.67,10.67,0,0,0,10.67,10.67h64A10.68,10.68,0,0,0,225.48,222V158a10.68,10.68,0,0,0-10.68-10.68h-64A10.67,10.67,0,0,0,140.09,158ZM156,163.23h53.51v53.51H156Z"/><path d="M368,251H259.46V145.06H242.89V251H134.36v16H242.89V372.87h16.57V267H368Z"/><path class="cls-1" d="M351.64,288.76H294.4a8.17,8.17,0,0,0-8.18,8.17v57.25h16.36V305.11h49.06Z"/><path class="cls-1" d="M318.93,313.29h16.36v40.89H318.93Z"/><rect class="cls-2" x="88.01" y="93.23" width="323.98" height="323.77" rx="34.32" ry="34.32"/><path d="M277.94,158v64a10.67,10.67,0,0,0,10.67,10.67h64A10.68,10.68,0,0,0,363.33,222V158a10.68,10.68,0,0,0-10.68-10.68h-64A10.68,10.68,0,0,0,277.94,158Zm15.94,5.26h53.51v53.51H293.88Z"/><path d="M140.09,290v64a10.67,10.67,0,0,0,10.67,10.67h64A10.68,10.68,0,0,0,225.48,354V290A10.68,10.68,0,0,0,214.8,279.3h-64A10.67,10.67,0,0,0,140.09,290ZM156,295.24h53.51v53.51H156Z"/></svg>