<?xml version="1.0" encoding="utf-8"?>
<!-- Generator: Adobe Illustrator 22.0.0, SVG Export Plug-In . SVG Version: 6.00 Build 0)  -->
<svg version="1.1" id="Layer_1" xmlns="http://www.w3.org/2000/svg" xmlns:xlink="http://www.w3.org/1999/xlink" x="0px" y="0px"
	 viewBox="0 0 500 500" style="enable-background:new 0 0 500 500;" xml:space="preserve">
<style type="text/css">
	.st0{fill:#625FDD;}
	.st1{fill:#222222;}
</style>
<title>ic-sv-qr-code</title>
<g>
	<g>
		<path class="st0" d="M115.9,207.6c2.7-2.7,2.7-7.1,0-9.8c-1.4-1.3-3.1-2-4.9-2c-1.8,0-3.5,0.7-4.9,2l-41.4,41.4
			c-0.6,0.6-1.1,1.4-1.5,2.2c-0.2,0.5-0.2,1-0.3,1.5c-0.1,0.4-0.2,0.7-0.2,1.1c0,0.5,0.2,1,0.3,1.5c0.1,0.4,0.1,0.8,0.2,1.1
			c0.4,0.9,0.9,1.6,1.5,2.3l41.4,41.4c2.7,2.7,7.1,2.7,9.8,0c2.7-2.7,2.7-7.1,0-9.8l-29.6-29.4h121.4c3.8,0,6.9-3.1,6.9-6.9
			s-3.1-6.9-6.9-6.9H86.3L115.9,207.6z"/>
		<path class="st1" d="M336.6,99c-1.1,0-2.1,0.2-3.1,0.3c-0.5-0.1-1-0.3-1.6-0.3H166.3c-19,0-34.5,15.5-34.5,34.5v69
			c0,3.8,3.1,6.9,6.9,6.9s6.9-3.1,6.9-6.9v-69c0-11.4,9.3-20.7,20.7-20.7h132L246.5,135c-11,4.7-18.1,15.5-18.1,27.4v212.7h-62.1
			c-9.9,0-18.4-6.9-20.4-9.8l-0.3-80c0-3.8-3.1-6.9-6.9-6.9l0,0c-3.8,0-6.9,3.1-6.9,6.9l0.3,80.4c-0.3,3,1.1,6.2,4.3,9.7
			c5.6,6.2,16.9,13.4,29.9,13.4h62.1v11.6c0,16.4,13.4,29.8,29.8,29.8c4.1,0,8-0.8,11.7-2.4l78.4-33.6c11-4.7,18.1-15.5,18.1-27.4
			v-238C366.4,112.4,353,99,336.6,99z M352.6,366.9c0,6.4-3.8,12.2-9.7,14.7l-78.4,33.6c-2,0.9-4.1,1.3-6.3,1.3c-8.8,0-16-7.2-16-16
			V162.4c0-6.4,3.8-12.2,9.7-14.7l78.4-33.6c2-0.9,4.1-1.3,6.3-1.3c8.8,0,16,7.2,16,16V366.9z"/>
		<path class="st1" d="M262.9,250.8c-3.8,0-6.9,3.1-6.9,6.9v27.6c0,3.8,3.1,6.9,6.9,6.9s6.9-3.1,6.9-6.9v-27.6
			C269.8,253.9,266.7,250.8,262.9,250.8z"/>
	</g>
</g>
</svg>
