<svg xmlns="http://www.w3.org/2000/svg" viewBox="0 0 500 500"><defs><style>.cls-1{isolation:isolate;}.cls-2{fill:#fff;stroke-width:13px;}.cls-2,.cls-4{stroke:#000;stroke-linejoin:round;}.cls-3,.cls-4{fill:#e3e3e3;}.cls-3{mix-blend-mode:multiply;}.cls-4{stroke-width:8px;}.cls-5{fill:#3ab3ef;opacity:0.5;}</style></defs><title>ic-sv-agency</title><g class="cls-1"><g id="Layer_1" data-name="Layer 1"><path class="cls-2" d="M366.3,186.52v-.31c0-6.48,3.25-12.28,8.07-16.63a35.51,35.51,0,0,0,11.84-26.49V102.24a36,36,0,0,0-36-36H321.79a36,36,0,0,0-36,36v40.85a35.54,35.54,0,0,0,11.83,26.49c4.82,4.35,8.08,10.15,8.08,16.63v.31a21.17,21.17,0,0,1-15.4,20.37l-31.56,8.93a35.38,35.38,0,0,0-25.74,34.05v59.85H439V249.87a35.38,35.38,0,0,0-25.75-34.05l-31.55-8.93A21.17,21.17,0,0,1,366.3,186.52Z"/><path class="cls-3" d="M439,249.87a35.38,35.38,0,0,0-25.75-34.05l-31.55-8.93a21.17,21.17,0,0,1-15.4-20.37v-.31c0-6.48,3.25-12.28,8.07-16.63a35.52,35.52,0,0,0,11.84-26.5V102.24a36,36,0,0,0-36-36H321.79A35.85,35.85,0,0,0,295,78.3a35.87,35.87,0,0,1,11.49-1.91H335a36,36,0,0,1,36,36V153.2a35.53,35.53,0,0,1-11.84,26.5C354.26,184,351,189.84,351,196.33v.31A21.16,21.16,0,0,0,366.41,217L398,225.94A35.38,35.38,0,0,1,423.71,260v49.73H439Z"/><path class="cls-4" d="M256.32,342.48H380.48a2.77,2.77,0,0,1,2.77,2.77v29.94a2.77,2.77,0,0,1-2.77,2.77H256.32a0,0,0,0,1,0,0V342.48A0,0,0,0,1,256.32,342.48Z"/><path class="cls-4" d="M279.85,364.94H404a2.77,2.77,0,0,1,2.77,2.77v29.94a2.77,2.77,0,0,1-2.77,2.77H279.85a0,0,0,0,1,0,0V364.94A0,0,0,0,1,279.85,364.94Z"/><path class="cls-2" d="M239.15,301.88l58,58.6c8.29,8.29,25.51,4.32,33.16-4.94,6.67-8.07,5.47-20.1-1.93-27.5l-57.69-57.69h0a82.62,82.62,0,0,0-57.46-24.19L112.61,245l-48.17,71.2,65.66,3.9L253,412.05a93.1,93.1,0,0,0,58,18.51l97-2.39A20.37,20.37,0,0,0,428,407.3l0-.84a20.38,20.38,0,0,0-20.87-19.87l-45.42,1.12c-26.71.66-49.79-11.17-67.95-30.77Z"/><rect class="cls-2" x="59.02" y="227.27" width="53.59" height="115.2"/><rect class="cls-5" x="73.66" y="227.27" width="38.95" height="115.2"/></g></g></svg>