<svg id="Layer_1" data-name="Layer 1" xmlns="http://www.w3.org/2000/svg" viewBox="0 0 500 500"><defs><style>.cls-1{fill:#3ab3ef;}.cls-1,.cls-5{opacity:0.5;}.cls-2{fill:none;}.cls-2,.cls-3{stroke:#222;stroke-linejoin:round;stroke-width:15px;}.cls-3{fill:#e3e3e3;}.cls-4,.cls-5{fill:#2ca4ee;}</style></defs><title>reward</title><path class="cls-1" d="M376.09,412H167.7c-4.84,0-8.76-6.78-8.76-15.15v-31.7c0-8.37-6.76-15.15-1.92-15.15H384.85c4.84,0,0,6.78,0,15.15v31.7C384.85,405.22,380.93,412,376.09,412Z"/><path class="cls-2" d="M152.36,104.05V381.27H328.2A30.73,30.73,0,0,0,359.79,412c16.73-.46,29.86-14.61,29.86-31.36V103.42a22,22,0,0,0-22-22H175A22.65,22.65,0,0,0,152.36,104.05Z"/><path class="cls-3" d="M328.2,381.27H90.9A30.73,30.73,0,0,0,121.63,412H358.92A30.72,30.72,0,0,1,328.2,381.27Z"/><path class="cls-4" d="M329.76,189l-9.65-8.35a3.54,3.54,0,0,1-1-3.88l4.19-12a3.59,3.59,0,0,0-2.69-4.69L308,157.66a3.56,3.56,0,0,1-2.84-2.84l-2.39-12.54a3.55,3.55,0,0,0-4.69-2.69l-12,4.19a3.61,3.61,0,0,1-3.89-1l-8.38-9.65a3.59,3.59,0,0,0-5.42,0L260,142.74a3.54,3.54,0,0,1-3.89,1l-12-4.19a3.58,3.58,0,0,0-4.69,2.69L237,154.82a3.57,3.57,0,0,1-2.85,2.84l-12.53,2.42a3.56,3.56,0,0,0-2.7,4.69l4.19,12a3.59,3.59,0,0,1-1,3.88L212.42,189a3.57,3.57,0,0,0,0,5.42l9.65,8.34a3.54,3.54,0,0,1,1,3.88l-4.19,12a3.58,3.58,0,0,0,2.7,4.69l12.53,2.42a3.58,3.58,0,0,1,2.85,2.85l2.42,12.53a3.55,3.55,0,0,0,4.69,2.69l12-4.19a3.63,3.63,0,0,1,3.89,1l8.34,9.65a3.57,3.57,0,0,0,5.42,0l8.35-9.65a3.54,3.54,0,0,1,3.88-1l12,4.19a3.57,3.57,0,0,0,4.69-2.69l2.43-12.53a3.57,3.57,0,0,1,2.84-2.85l12.54-2.42a3.55,3.55,0,0,0,2.69-4.69l-4.19-12a3.6,3.6,0,0,1,1-3.88l9.65-8.34A3.55,3.55,0,0,0,329.76,189Zm-32.6-.2-11.8,10,3.69,15a3.26,3.26,0,0,1-4.85,3.54l-13.11-8.19L258,217.3a3.24,3.24,0,0,1-4.85-3.54l3.7-15L245,188.81a3.23,3.23,0,0,1,1.85-5.7L262.25,182l5.8-14.3a3.23,3.23,0,0,1,6,0l5.81,14.3,15.38,1.11A3.27,3.27,0,0,1,297.16,188.84Z"/><path class="cls-5" d="M287.35,252.48,282.59,258a15.2,15.2,0,0,1-23,0l-4.76-5.54-6.93,2.38a14.58,14.58,0,0,1-4,.81v44.91a8.54,8.54,0,0,0,4.15,7.34l18.61,11.19a8.65,8.65,0,0,0,8.84,0l18.61-11.19a8.55,8.55,0,0,0,4.16-7.34V255.67a14.65,14.65,0,0,1-4-.81Z"/></svg>