<svg xmlns="http://www.w3.org/2000/svg" viewBox="0 0 500 500"><defs><style>.cls-1{isolation:isolate;}.cls-2{fill:#fff;}.cls-2,.cls-8{stroke:#222;stroke-width:14px;}.cls-2,.cls-5,.cls-6,.cls-7{stroke-linejoin:round;}.cls-3{fill:#e3e3e3;mix-blend-mode:multiply;}.cls-4{opacity:0.3;}.cls-5,.cls-6,.cls-7{fill:none;stroke:#000;stroke-width:10px;}.cls-6{stroke-dasharray:3.12 3.12;}.cls-7{stroke-dasharray:3.14 3.14;}.cls-8{fill:#f9f9f9;stroke-miterlimit:10;}.cls-9{fill:#625fdd;}</style></defs><title>cloud-qna</title><g class="cls-1"><g id="Layer_1" data-name="Layer 1"><path class="cls-2" d="M368.88,162.29c-1.73,0-3.42.12-5.1.25A78.9,78.9,0,0,0,209.65,129a60.37,60.37,0,0,0-94.44,60.89,51,51,0,1,0-6.94,101.62H368.88a64.62,64.62,0,1,0,0-129.24Z"/><path class="cls-3" d="M368.88,162.29c-1.73,0-3.42.12-5.1.25a78.92,78.92,0,0,0-98.2-90.79,78.62,78.62,0,0,1,57.17,90.79c1.69-.13,3.38-.25,5.1-.25a64.62,64.62,0,1,1,0,129.24h41a64.62,64.62,0,1,0,0-129.24Z"/><g class="cls-4"><line class="cls-5" x1="120.07" y1="314.17" x2="120.07" y2="315.67"/><line class="cls-6" x1="120.06" y1="318.8" x2="119.94" y2="360.98"/><polyline class="cls-5" points="119.93 362.54 119.93 364.04 121.43 364.04"/><line class="cls-7" x1="124.57" y1="364.05" x2="185.79" y2="364.23"/><line class="cls-5" x1="187.36" y1="364.23" x2="188.86" y2="364.24"/></g><path class="cls-8" d="M417.16,314.42A105.58,105.58,0,1,0,311.58,420,105.58,105.58,0,0,0,417.16,314.42Z"/><path class="cls-9" d="M361.14,254.74H268.92a17.14,17.14,0,0,0-17.3,16.89V374.45l12.1-10.93c.56-.52,1.18-1,1.64-1.41,5.53-5.09,6.94-5.9,14.15-5.75,1,0,2.15,0,3.58,0h78.05a16.88,16.88,0,0,0,16.86-17V271.63A16.77,16.77,0,0,0,361.14,254.74ZM292.06,318h-.75a9,9,0,1,1,0-18h.75a9,9,0,0,1,0,18Zm27,0h-.75a9,9,0,1,1,0-18h.75a9,9,0,0,1,0,18Zm27,0h-.75a9,9,0,1,1,0-18h.75a9,9,0,0,1,0,18Z"/></g></g></svg>