<svg id="Layer_1" data-name="Layer 1" xmlns="http://www.w3.org/2000/svg" viewBox="0 0 500 500"><defs><style>.cls-1{fill:#8885e5;opacity:0.5;}.cls-2{fill:none;}.cls-2,.cls-3{stroke:#222;stroke-linejoin:round;stroke-width:15px;}.cls-3{fill:#e3e3e3;}.cls-4{fill:#333;}</style></defs><title>coin-history</title><path class="cls-1" d="M363,420H151.86c-4.9,0-8.87-7-8.87-15.64V371.64c0-8.64-6.85-15.64-2-15.64H371.82c4.9,0,0,7,0,15.64v32.72C371.82,413,367.85,420,363,420Z"/><path class="cls-2" d="M140.36,110.05V387.27H316.2A30.73,30.73,0,0,0,347.79,418c16.73-.46,29.86-14.61,29.86-31.36V109.42a22,22,0,0,0-22-22H163A22.65,22.65,0,0,0,140.36,110.05Z"/><path class="cls-3" d="M316.2,387.27H78.9A30.73,30.73,0,0,0,109.63,418H346.92A30.72,30.72,0,0,1,316.2,387.27Z"/><path class="cls-4" d="M287,178.82q7.81,7.92,7.82,24.35v5q0,10.81-3.51,17.83a22.24,22.24,0,0,1-10.72,10.42Q297,242.85,297,266.49v11.42q0,16.23-8.52,24.74t-24.94,8.52H228.87V170.91h33.26Q279.17,170.91,287,178.82ZM250.91,228h8.62q6.62,0,9.92-3.4t3.3-11.42v-7.82q0-7.6-2.7-11t-8.52-3.41H250.91Zm0,63.12h12.63q5.81,0,8.61-3.1T275,277.31V265.08q0-9.61-3.31-13.32t-10.92-3.71h-9.82Z"/><rect class="cls-4" x="233.47" y="301.38" width="28.6" height="15.32" transform="translate(-61.27 556.81) rotate(-90)"/><rect class="cls-4" x="256.55" y="301.38" width="28.6" height="15.32" transform="translate(-38.19 579.9) rotate(-90)"/><rect class="cls-4" x="233.47" y="163.3" width="28.6" height="15.32" transform="translate(76.81 418.73) rotate(-90)"/><rect class="cls-4" x="256.55" y="163.3" width="28.6" height="15.32" transform="translate(99.9 441.81) rotate(-90)"/></svg>