<svg id="Layer_1" data-name="Layer 1" xmlns="http://www.w3.org/2000/svg" viewBox="0 0 500 500"><defs><style>.cls-1{opacity:0.8;}.cls-2{fill:#333;}.cls-3{fill:#222;}</style></defs><title>ic-sv-ico</title><g class="cls-1"><path class="cls-2" d="M179.47,179.93V319.35H157.56V179.93Z"/><path class="cls-2" d="M258.93,285.89q0,16.94-8.36,26t-24.3,9.06q-15.93,0-24.3-9.06t-8.36-26v-72.5q0-16.92,8.36-26t24.3-9.06q15.93,0,24.3,9.06t8.36,26v13.55H238.22V212q0-13.74-11.35-13.74T215.52,212v75.28q0,13.55,11.35,13.55t11.35-13.55V267.37h20.71Z"/><path class="cls-2" d="M279.05,187.5q8.55-9.15,24.69-9.16t24.7,9.16q8.56,9.17,8.56,25.89v72.5q0,16.73-8.56,25.89t-24.7,9.16q-16.12,0-24.69-9.16t-8.57-25.89v-72.5Q270.48,196.67,279.05,187.5ZM303.74,301q11.36,0,11.36-13.75V212q0-13.74-11.36-13.74T292.39,212v75.28Q292.39,301,303.74,301Z"/></g><path class="cls-3" d="M240.8,416.47A166.6,166.6,0,1,1,407.27,250h13.14A179.5,179.5,0,1,0,310.72,415.48l-5.12-12.09A165.8,165.8,0,0,1,240.8,416.47Z"/></svg>