<svg xmlns="http://www.w3.org/2000/svg" viewBox="0 0 500 500"><defs><style>.cls-1{isolation:isolate;}.cls-2{fill:#8885e5;opacity:0.5;}.cls-3{fill:#222;}.cls-4{fill:#625fdd;}.cls-5{fill:#f9f9f9;stroke:#222;stroke-miterlimit:10;stroke-width:14px;}.cls-6{mix-blend-mode:multiply;}.cls-7{fill:#e3e3e3;}.cls-8{fill:#333;}</style></defs><title>crypto</title><g class="cls-1"><g id="Layer_1" data-name="Layer 1"><path class="cls-2" d="M223.26,106H132.67c-2.1,0-3.8-2.08-3.8-4.64V91.64c0-2.56-2.94-4.64-.84-4.64h99c2.1,0,0,2.08,0,4.64v9.72C227.07,103.92,225.36,106,223.26,106Z"/><path class="cls-2" d="M267.55,424H87a7.84,7.84,0,0,1-7.59-8.07V399.07c0-4.46-5.86-8.07-1.66-8.07H275.14c4.19,0,0,3.61,0,8.07v16.86A7.84,7.84,0,0,1,267.55,424Z"/><path id="Shape" class="cls-3" d="M259.61,429a23.19,23.19,0,0,0,23.19-23.19V104.3a23.19,23.19,0,0,0-23.19-23.19H97.26A23.19,23.19,0,0,0,74.07,104.3V405.81A23.19,23.19,0,0,0,97.26,429ZM223,92.71l-7.42,7.94a11.6,11.6,0,0,1-8.18,3.65H150a11.54,11.54,0,0,1-8.46-3.65l-7.71-7.94ZM85.66,104.3a11.59,11.59,0,0,1,11.6-11.59H118l14.84,15.88a23.19,23.19,0,0,0,16.93,7.31h57.69a23.19,23.19,0,0,0,16.93-7.31l14.56-15.88h20.7A11.59,11.59,0,0,1,271.2,104.3V376.82a11.59,11.59,0,0,1-11.59,11.59H97.26a11.59,11.59,0,0,1-11.6-11.59Zm0,301.51v-9.05A22.68,22.68,0,0,0,97.26,400H259.61a22.67,22.67,0,0,0,11.59-3.25v9.05a11.59,11.59,0,0,1-11.59,11.59H97.26A11.59,11.59,0,0,1,85.66,405.81Z"/><path id="Shape-2" data-name="Shape" class="cls-3" d="M103.06,365.22H253.81a5.8,5.8,0,0,0,0-11.6H248V226.06a11.59,11.59,0,0,0-11.6-11.59H219a11.6,11.6,0,0,0-11.6,11.59V353.62H195.83V260.85a11.59,11.59,0,0,0-11.6-11.59H166.84a11.59,11.59,0,0,0-11.6,11.59v92.77h-11.6V301.44a11.6,11.6,0,0,0-11.59-11.6h-17.4a11.6,11.6,0,0,0-11.59,11.6v52.18a5.8,5.8,0,1,0,0,11.6ZM219,226.06h17.39V353.62H219Zm-52.18,34.79h17.39v92.77H166.84Zm-52.19,40.59h17.4v52.18h-17.4Z"/><path id="Shape-3" data-name="Shape" class="cls-4" d="M108.86,272.45c3.13,0-6.56,7.54,121.76-103.32v10.55a5.8,5.8,0,1,0,11.59,0c0-24.58,0-23.83-.34-25.22-2.79-5-2.56-3.77-34.45-3.77a5.8,5.8,0,0,0,0,11.6h13.4l-116,100a5.8,5.8,0,0,0,4,10.2Z"/><path class="cls-5" d="M429.16,255.42A92.58,92.58,0,1,0,336.58,348,92.58,92.58,0,0,0,429.16,255.42Z"/><g class="cls-6"><g class="cls-6"><path class="cls-7" d="M427.62,256.47A88.13,88.13,0,0,0,291.46,182.6a88.13,88.13,0,0,1,83.15,154.71A88.14,88.14,0,0,0,427.62,256.47Z"/></g></g><path class="cls-8" d="M358.42,279.64q0,11.07-5.47,17t-15.89,5.92q-10.41,0-15.88-5.92t-5.47-17V232.25q0-11.07,5.47-17t15.88-5.93q10.43,0,15.89,5.93t5.47,17v8.85H344.87v-9.76q0-9-7.42-9t-7.42,9v49.21q0,8.86,7.42,8.86t7.42-8.86v-13h13.55Z"/></g></g></svg>