<svg xmlns="http://www.w3.org/2000/svg" viewBox="0 0 500 500"><defs><style>.cls-1{isolation:isolate;}.cls-2{fill:#2ca4ee;}.cls-3{mix-blend-mode:multiply;}.cls-4{fill:#e3e3e3;}</style></defs><title>store-guide</title><g class="cls-1"><g id="Layer_1" data-name="Layer 1"><path class="cls-2" d="M299.16,325.37a27.78,27.78,0,0,1,4.68-14.79,36.13,36.13,0,0,1,13.68-12.41,43,43,0,0,1,21-4.92,44.77,44.77,0,0,1,19.67,4.11,31.9,31.9,0,0,1,13.18,11.18A27.45,27.45,0,0,1,376,323.91a23.73,23.73,0,0,1-2.65,11.45,35.12,35.12,0,0,1-6.3,8.49q-3.66,3.57-13.1,12a51.29,51.29,0,0,0-4.19,4.19,17.26,17.26,0,0,0-2.35,3.3,16.27,16.27,0,0,0-1.19,3q-.42,1.5-1.27,5.26-1.45,8-9.14,8a9.34,9.34,0,0,1-6.72-2.61q-2.73-2.61-2.73-7.76a27.27,27.27,0,0,1,7.3-19.48,121.61,121.61,0,0,1,8.91-8.49q4.92-4.3,7.11-6.5a21.92,21.92,0,0,0,3.69-4.88,11.76,11.76,0,0,0,1.5-5.84,13.61,13.61,0,0,0-4.57-10.37,16.71,16.71,0,0,0-11.8-4.23q-8.46,0-12.45,4.27t-6.76,12.56q-2.61,8.68-9.91,8.69a9.79,9.79,0,0,1-7.27-3A9.27,9.27,0,0,1,299.16,325.37Zm37.5,84.22a12.11,12.11,0,0,1-8.19-3q-3.5-3-3.49-8.5a10.91,10.91,0,0,1,3.38-8.14,11.42,11.42,0,0,1,8.3-3.3,11.29,11.29,0,0,1,11.45,11.44,10.76,10.76,0,0,1-3.46,8.46A11.67,11.67,0,0,1,336.66,409.59Z"/><path id="Shape" d="M405.34,268.17V230.12a32.35,32.35,0,0,0,25.88-31.7,58.25,58.25,0,0,0-.58-15.6L382.37,80.13A19.43,19.43,0,0,0,364.76,69H134.47a19.41,19.41,0,0,0-16.7,9.58C51.83,190.52,56.75,182,56.23,183.79a59.21,59.21,0,0,0-.32,14.63,32.35,32.35,0,0,0,25.88,31.7V379.6a38.84,38.84,0,0,0,38.83,38.83H255.08A106.71,106.71,0,1,0,405.34,268.17Zm-6.47-50.34a19.41,19.41,0,0,1-19.42-19.41V192h38.83v6.47A19.41,19.41,0,0,1,398.87,217.83ZM183.65,81.94,160.8,179h-37l40-97.06Zm33.64,0L211.6,179H174.07l22.84-97.06Zm72.93,0L313.06,179H275.53l-5.69-97.06Zm33.13,0,40,97.06h-37L303.49,81.94ZM262.59,179h-38l5.7-97.06H256.9ZM120.62,192h38.82v6.47a19.41,19.41,0,1,1-38.82,0Zm51.77,0h38.82v6.47a19.41,19.41,0,0,1-38.82,0Zm51.76,0H263v6.47a19.42,19.42,0,0,1-38.83,0Zm51.77,0h38.82v6.47a19.41,19.41,0,0,1-38.82,0Zm51.77,0h38.82v6.47a19.41,19.41,0,1,1-38.82,0Zm42.9-106.32L414.53,179H377.32l-40-97.06h27.43a6.48,6.48,0,0,1,5.83,3.69ZM128.9,85.11a6.49,6.49,0,0,1,5.57-3.17H149.8l-40,97.06H73.71ZM68.85,198.42V192h38.83v6.47a19.42,19.42,0,0,1-38.83,0ZM94.74,373.13v-143a32.37,32.37,0,0,0,19.41-12.29,32.36,32.36,0,0,0,51.77,0,32.35,32.35,0,0,0,51.76,0,32.36,32.36,0,0,0,51.77,0,32.36,32.36,0,0,0,51.77,0,32.35,32.35,0,0,0,51.76,0,32.4,32.4,0,0,0,19.41,12.49v29c-79.59-47.95-179.17,22.26-159.31,113.82m4,12.94a109.38,109.38,0,0,0,9.19,19.41H120.62a25.87,25.87,0,0,1-25-19.41m241.75,58.24a93.83,93.83,0,1,1,93.83-93.83A93.82,93.82,0,0,1,337.39,444.31Z"/><g class="cls-3"><g class="cls-3"><path class="cls-4" d="M437,351.86a100.87,100.87,0,0,0-155.86-84.55,100.87,100.87,0,0,1,95.18,177.08A100.87,100.87,0,0,0,437,351.86Z"/></g></g></g></g></svg>