<svg id="Layer_1" data-name="Layer 1" xmlns="http://www.w3.org/2000/svg" viewBox="0 0 500 500"><defs><style>.cls-1{fill:#222;}.cls-2{opacity:0.8;}.cls-3{fill:#333;}</style></defs><title>ic-sv-ieo</title><path class="cls-1" d="M241.8,423.47A166.6,166.6,0,1,1,408.27,257h13.14A179.5,179.5,0,1,0,311.72,422.48l-5.12-12.09A165.8,165.8,0,0,1,241.8,423.47Z"/><g class="cls-2"><path class="cls-3" d="M180.47,186.93V326.35H158.56V186.93Z"/><path class="cls-3" d="M248.38,245.69V265.6H218.31v40.83h37.84v19.92H196.4V186.93h59.75v19.92H218.31v38.84Z"/><path class="cls-3" d="M276.46,194.5q8.57-9.15,24.7-9.16t24.7,9.16q8.55,9.17,8.56,25.89v72.5q0,16.73-8.56,25.89t-24.7,9.16q-16.12,0-24.7-9.16t-8.56-25.89v-72.5Q267.9,203.67,276.46,194.5ZM301.16,308q11.35,0,11.35-13.75V219q0-13.74-11.35-13.74T289.81,219v75.28Q289.81,308,301.16,308Z"/></g></svg>