<?xml version="1.0" encoding="utf-8"?>
<!-- Generator: Adobe Illustrator 22.0.0, SVG Export Plug-In . SVG Version: 6.00 Build 0)  -->
<svg version="1.1" id="Layer_1" xmlns="http://www.w3.org/2000/svg" xmlns:xlink="http://www.w3.org/1999/xlink" x="0px" y="0px"
	 viewBox="0 0 500 500" style="enable-background:new 0 0 500 500;" xml:space="preserve">
<style type="text/css">
	.st0{fill:#625FDD;}
	.st1{fill:#222222;}
</style>
<title>ic-sv-qr-code</title>
<g>
	<g>
		<g>
			<path class="st0" d="M-323.4,259.9c-2.7,2.7-2.7,7.1,0,9.8c1.4,1.3,3.1,2,4.9,2s3.5-0.7,4.9-2l41.4-41.4c0.6-0.6,1.1-1.4,1.5-2.2
				c0.2-0.5,0.2-1,0.3-1.5c0.1-0.4,0.2-0.7,0.2-1.1c0-0.5-0.2-1-0.3-1.5c-0.1-0.4-0.1-0.8-0.2-1.1c-0.4-0.9-0.9-1.6-1.5-2.3
				l-41.4-41.4c-2.7-2.7-7.1-2.7-9.8,0c-2.7,2.7-2.7,7.1,0,9.8l29.6,29.4h-121.4c-3.8,0-6.9,3.1-6.9,6.9s3.1,6.9,6.9,6.9h121.4
				L-323.4,259.9z"/>
			<path class="st1" d="M-148.2,78.4c-1.1,0-2.1,0.2-3.1,0.3c-0.5-0.1-1-0.3-1.6-0.3h-165.6c-19,0-34.5,15.5-34.5,34.5v69
				c0,3.8,3.1,6.9,6.9,6.9s6.9-3.1,6.9-6.9v-69c0-11.4,9.3-20.7,20.7-20.7h132l-51.8,22.2c-11,4.7-18.1,15.5-18.1,27.4v212.7h-62.1
				c-9.9,0-18.4-6.9-20.4-9.8l-0.3-80c0-3.8-3.1-6.9-6.9-6.9l0,0c-3.8,0-6.9,3.1-6.9,6.9l0.3,80.4c-0.3,3,1.1,6.2,4.3,9.7
				c5.6,6.2,16.9,13.4,29.9,13.4h62.1v11.6c0,16.4,13.4,29.8,29.8,29.8c4.1,0,8-0.8,11.7-2.4l78.4-33.6c11-4.7,18.1-15.5,18.1-27.4
				v-238C-118.4,91.8-131.8,78.4-148.2,78.4z M-132.2,346.3c0,6.4-3.8,12.2-9.7,14.7l-78.4,33.6c-2,0.9-4.1,1.3-6.3,1.3
				c-8.8,0-16-7.2-16-16V141.8c0-6.4,3.8-12.2,9.7-14.7l78.4-33.6c2-0.9,4.1-1.3,6.3-1.3c8.8,0,16,7.2,16,16V346.3z"/>
			<path class="st1" d="M-221.9,230.2c-3.8,0-6.9,3.1-6.9,6.9v27.6c0,3.8,3.1,6.9,6.9,6.9s6.9-3.1,6.9-6.9v-27.6
				C-215,233.3-218.1,230.2-221.9,230.2z"/>
		</g>
	</g>
</g>
<g>
	<path class="st1" d="M250,98.6c-84,0-152.4,68.4-152.4,152.4S166,403.3,250,403.3S402.4,335,402.4,250.9S334,98.6,250,98.6z
		 M250,391.6c-77.6,0-140.7-63.1-140.7-140.7S172.4,110.3,250,110.3s140.7,63.1,140.7,140.7S327.6,391.6,250,391.6z"/>
	<path class="st0" d="M323.3,245.1h-67.4v-64.5c0-3.2-2.6-5.9-5.9-5.9s-5.9,2.6-5.9,5.9v64.5h-67.4c-3.2,0-5.9,2.6-5.9,5.9
		c0,3.2,2.6,5.9,5.9,5.9h67.4v70.3c0,3.2,2.6,5.9,5.9,5.9s5.9-2.6,5.9-5.9v-70.3h67.4c3.2,0,5.9-2.6,5.9-5.9
		C329.1,247.7,326.5,245.1,323.3,245.1z"/>
</g>
</svg>
