<svg id="Capa_1" data-name="Capa 1" xmlns="http://www.w3.org/2000/svg" viewBox="0 0 350 350"><defs><style>.cls-1{fill:#cbd0d4;}.cls-2{fill:#efefef;}</style></defs><title>Artboard 1</title><rect class="cls-1" width="350" height="350"/><path d="M41.91,301.85c0-2.88,0-.81,0,0Z"/><path d="M300.63,292.2c0-.74,0-5.16,0,0Z"/><path class="cls-2" d="M175,229.45c36.74,0,66.52-36.18,66.52-80.8s-9.78-80.8-66.52-80.8-66.52,36.18-66.52,80.8S138.26,229.45,175,229.45Z"/><path class="cls-2" d="M300.49,340.2c-1.23-77.73-11.39-99.88-89.07-113.9,0,0-10.94,13.94-36.43,13.94s-36.42-13.94-36.42-13.94C61.73,240.17,51,262,49.54,337.68c-.11,6.18-.17,6.5-.19,5.79,0,1.34,0,3.83,0,8.16,0,0,18.5,37.29,125.63,37.29s125.63-37.29,125.63-37.29c0-2.78,0-4.72,0-6A51.44,51.44,0,0,1,300.49,340.2Z"/></svg>